<svg width="299" height="65" viewBox="0 0 299 65" fill="none" xmlns="http://www.w3.org/2000/svg">
<path d="M92.149 26.9777C92.149 27.1939 92.0048 27.338 91.7886 27.338C91.5003 27.338 91.3562 27.1939 91.3562 26.9777C91.3562 26.1128 91.0679 25.3921 90.4913 24.7435L90.203 24.5273C89.6265 24.0948 89.0499 23.8786 88.3292 23.8786H81.6986C80.9779 23.8786 80.3293 24.0948 79.7527 24.5273L79.4644 24.7435C78.8879 25.32 78.5996 26.1128 78.5996 26.9777C78.5996 27.7705 78.8158 28.4191 79.1761 28.8515C79.5365 29.284 80.1131 29.7164 80.7617 30.0047C81.4103 30.293 82.1311 30.5092 82.9238 30.6533C83.7166 30.7974 84.5815 30.9416 85.4463 31.0137C86.3112 31.1578 87.176 31.2299 87.9688 31.4461C88.7616 31.5902 89.5544 31.8064 90.131 32.1668C90.7796 32.4551 91.2841 32.8875 91.7165 33.4641C92.0769 33.9686 92.2931 34.6893 92.2931 35.5541C92.2931 36.1307 92.221 36.6352 92.0048 37.0676C91.7886 37.5721 91.5003 37.9325 91.14 38.2929C90.7796 38.6532 90.3472 38.9415 89.9148 39.0856C89.4823 39.3019 88.9778 39.3739 88.4013 39.3739H81.4104C80.3293 39.3739 79.4644 39.0136 78.6716 38.2208L78.5996 38.0766C77.9509 37.3559 77.5906 36.5631 77.5906 35.5541V35.41C77.5906 35.1938 77.7347 35.0497 77.9509 35.0497C78.2392 35.0497 78.3834 35.1938 78.3834 35.41C78.3834 36.2028 78.6716 36.9235 79.1761 37.5001L79.2482 37.6442C79.8248 38.2208 80.5455 38.5091 81.4104 38.5091H88.4013C88.8337 38.5091 89.194 38.437 89.6265 38.2929C89.9868 38.1487 90.3472 37.9325 90.5634 37.6442C90.8517 37.3559 91.0679 37.0676 91.212 36.6352C91.3562 36.2749 91.4282 35.8424 91.4282 35.41C91.4282 34.4731 91.212 33.7524 90.7075 33.3199C90.203 32.8875 89.6265 32.5272 88.9058 32.3109C88.185 32.0947 87.4643 31.9506 86.6716 31.8785C85.8788 31.8065 85.2301 31.6623 84.6536 31.5902C83.6446 31.4461 82.7797 31.302 81.9148 31.1578C81.05 30.9416 80.3293 30.7254 79.6806 30.365C79.032 30.0047 78.5275 29.5722 78.1671 29.0677C77.8068 28.5632 77.6627 27.8425 77.6627 27.0497C77.6627 25.9687 78.023 25.1038 78.8158 24.311L78.8879 24.239C79.6086 23.5183 80.5455 23.23 81.5545 23.23H88.185C89.194 23.23 90.0589 23.5903 90.8517 24.239L90.9237 24.311C91.7886 25.0318 92.149 25.8966 92.149 26.9777Z" fill="black"/>
<path d="M88.4742 39.8809H81.4832C80.258 39.8809 79.2491 39.4484 78.3842 38.5836C78.3842 38.5836 78.3842 38.5836 78.3121 38.5115L78.24 38.4394C77.5193 37.6467 77.0869 36.7097 77.0869 35.6287V35.4845C77.0869 34.98 77.4473 34.6197 77.9518 34.6197C78.4563 34.6197 78.8887 34.98 78.8887 35.4845C78.8887 36.1332 79.1049 36.7097 79.6094 37.2142L79.6815 37.3584C80.186 37.8629 80.7625 38.0791 81.4832 38.0791H88.4742C88.8345 38.0791 89.1949 38.007 89.4832 37.8629C89.7714 37.7187 90.0597 37.5025 90.2759 37.2863C90.4922 37.0701 90.7084 36.7818 90.8525 36.4215C90.9966 36.1332 91.0687 35.7728 91.0687 35.4125C91.0687 34.6197 90.8525 34.0431 90.4921 33.6828C90.0597 33.2503 89.5552 32.962 88.9066 32.8179C88.2579 32.6017 87.5372 32.4575 86.8165 32.3855C86.0237 32.3134 85.3751 32.1692 84.7985 32.0972C83.7895 31.953 82.8526 31.8089 81.9878 31.5927C81.1229 31.3765 80.3301 31.0882 79.6094 30.7278C78.8887 30.3675 78.3121 29.863 77.9518 29.2143C77.5193 28.6378 77.3031 27.845 77.3031 26.9081C77.3031 25.7549 77.7355 24.6738 78.6004 23.809L78.6725 23.7369C79.5373 22.9441 80.5463 22.5117 81.6995 22.5117H88.33C89.4832 22.5117 90.4922 22.8721 91.2849 23.6649L91.357 23.7369C92.2219 24.6018 92.6543 25.6108 92.6543 26.836C92.6543 27.3405 92.2939 27.7008 91.7894 27.7008C91.2129 27.7008 90.8525 27.3405 90.8525 26.836C90.8525 26.1153 90.6363 25.5387 90.1318 25.0342L89.8435 24.818C89.4111 24.4576 88.8345 24.2414 88.2579 24.2414H81.6274C81.0508 24.2414 80.4743 24.4576 80.0418 24.818L79.8256 25.0342C79.3211 25.5387 79.1049 26.1153 79.1049 26.836C79.1049 27.4846 79.249 28.0612 79.6094 28.4216C79.9698 28.854 80.4022 29.1423 80.9788 29.4305C81.5553 29.7188 82.276 29.863 83.0688 30.0071C83.8616 30.1513 84.7265 30.2954 85.5913 30.3675C86.4562 30.5116 87.321 30.6558 88.1138 30.7999C88.9787 30.944 89.7714 31.2323 90.4201 31.5206C91.1408 31.881 91.7174 32.3134 92.1498 32.962C92.5822 33.5386 92.8705 34.4035 92.8705 35.3404C92.8705 35.917 92.7264 36.4935 92.5101 37.0701C92.2939 37.5746 91.9336 38.0791 91.5732 38.4394C91.1408 38.7998 90.7084 39.1602 90.2039 39.3764C89.6273 39.7367 89.0507 39.8809 88.4742 39.8809Z" fill="black"/>
<path d="M114.274 27.9152C114.274 28.8521 114.13 29.717 113.769 30.5098C113.409 31.3025 112.905 32.0953 112.256 32.6719C111.679 33.2485 111.031 33.6809 110.31 34.0413C109.589 34.4016 108.796 34.6178 108.004 34.6899H107.643V38.87C107.643 39.0862 107.499 39.2304 107.283 39.2304C107.067 39.2304 106.923 39.0862 106.923 38.87V34.6899H106.562C105.697 34.6178 104.905 34.4016 104.112 33.9692C103.319 33.6088 102.67 33.1043 102.094 32.4557C101.517 31.8791 101.085 31.1584 100.724 30.3656C100.364 29.5728 100.22 28.708 100.22 27.8431V23.4468C100.22 23.2306 100.364 23.0864 100.58 23.0864C100.869 23.0864 101.013 23.2306 101.013 23.4468V27.8431C101.013 28.6359 101.157 29.4287 101.517 30.1494C101.806 30.8701 102.238 31.5188 102.815 32.0953C103.391 32.6719 103.968 33.1043 104.76 33.3926C105.481 33.753 106.274 33.8971 107.139 33.8971H107.499C108.364 33.8971 109.085 33.753 109.878 33.3926C110.598 33.0323 111.247 32.5998 111.823 32.0953C112.4 31.5188 112.76 30.8701 113.121 30.1494C113.409 29.4287 113.625 28.6359 113.625 27.8431V23.4468C113.625 23.2306 113.769 23.0864 114.058 23.0864C114.274 23.0864 114.418 23.2306 114.418 23.4468V27.9152H114.274Z" fill="black"/>
<path d="M107.284 39.8743C106.779 39.8743 106.419 39.514 106.419 39.0095V35.2618C105.554 35.1897 104.689 34.9014 103.897 34.5411C103.104 34.1086 102.383 33.6041 101.807 32.9555C101.23 32.3069 100.725 31.5141 100.365 30.7213C100.005 29.8564 99.8606 28.9916 99.8606 28.0547V23.6583C99.8606 23.1538 100.221 22.7935 100.725 22.7935C101.302 22.7935 101.662 23.1538 101.662 23.6583V28.0547C101.662 28.7754 101.807 29.4961 102.095 30.1447C102.383 30.7934 102.816 31.442 103.32 31.9465C103.825 32.451 104.401 32.8834 105.05 33.1717C105.698 33.46 106.419 33.6041 107.212 33.6041H107.572C108.365 33.6041 109.086 33.46 109.734 33.1717C110.383 32.8834 111.032 32.451 111.464 31.9465C111.969 31.442 112.329 30.8654 112.689 30.1447C112.978 29.4961 113.122 28.7754 113.122 28.0547V23.6583C113.122 23.1538 113.482 22.7935 114.059 22.7935C114.563 22.7935 114.923 23.1538 114.923 23.6583V28.0547C114.923 29.0637 114.707 30.0006 114.347 30.8654C113.987 31.7303 113.482 32.451 112.833 33.0996C112.833 33.1717 112.761 33.1717 112.761 33.1717C112.185 33.7483 111.464 34.2528 110.671 34.6131C109.951 34.9735 109.086 35.1897 108.293 35.2618V39.0095C108.149 39.514 107.788 39.8743 107.284 39.8743Z" fill="black"/>
<path d="M122.777 38.9398C122.777 39.156 122.633 39.3002 122.417 39.3002C122.201 39.3002 122.057 39.156 122.057 38.9398V24.4535C122.057 24.0211 122.201 23.7328 122.489 23.5166C122.777 23.3004 123.066 23.1562 123.426 23.1562C123.642 23.1562 123.858 23.2283 124.003 23.3004C124.219 23.3725 124.363 23.5166 124.435 23.6607L135.894 38.4353C135.966 38.5795 136.111 38.7236 136.327 38.7236C136.543 38.7236 136.687 38.6516 136.831 38.5074C136.975 38.3633 137.047 38.2191 137.047 38.075V23.5887C137.047 23.3725 137.192 23.2283 137.408 23.2283C137.624 23.2283 137.768 23.3725 137.768 23.5887V38.075C137.768 38.4353 137.624 38.7236 137.408 39.0119C137.12 39.3002 136.831 39.3723 136.471 39.3723C136.255 39.3723 136.038 39.3002 135.894 39.2281C135.678 39.1561 135.534 39.0119 135.462 38.8678L124.003 24.0932C123.858 23.949 123.714 23.8049 123.57 23.8049C123.354 23.8049 123.21 23.877 123.066 24.0211C122.922 24.1652 122.849 24.3094 122.849 24.4535V38.9398H122.777Z" fill="black"/>
<path d="M136.401 39.8769C136.113 39.8769 135.825 39.8049 135.536 39.6607C135.248 39.5166 135.032 39.3724 134.888 39.1562L123.5 24.4537C123.428 24.3816 123.428 24.3816 123.428 24.3816C123.356 24.3816 123.356 24.3816 123.284 24.4537C123.212 24.5258 123.212 24.5258 123.212 24.5258V39.0121C123.212 39.5166 122.852 39.8769 122.347 39.8769C121.843 39.8769 121.482 39.5166 121.482 39.0121V24.5258C121.482 23.9492 121.699 23.5168 122.059 23.1564C122.636 22.6519 123.428 22.5078 124.149 22.8681C124.437 23.0123 124.654 23.2285 124.798 23.4447L136.185 38.1472C136.185 38.1472 136.185 38.2193 136.257 38.2193C136.329 38.2193 136.401 38.2193 136.401 38.1472C136.473 38.0752 136.473 38.0752 136.473 38.0752V23.5889C136.473 23.0844 136.834 22.724 137.338 22.724C137.843 22.724 138.203 23.0844 138.203 23.5889V38.0752C138.203 38.5797 137.987 39.0121 137.698 39.3724C137.338 39.6607 136.906 39.8769 136.401 39.8769Z" fill="black"/>
<path d="M153.335 39.007C153.335 39.2232 153.191 39.3674 152.975 39.3674C152.686 39.3674 152.542 39.2232 152.542 39.007V23.9442H146.272C146.056 23.9442 145.912 23.8 145.912 23.5117C145.912 23.2955 146.056 23.1514 146.272 23.1514H159.677C159.893 23.1514 160.038 23.2955 160.038 23.5117C160.038 23.8 159.893 23.9442 159.677 23.9442H153.407V39.007H153.335Z" fill="black"/>
<path d="M152.977 39.8725C152.4 39.8725 152.04 39.5121 152.04 39.0076V24.4492H146.202C145.698 24.4492 145.337 24.0889 145.337 23.5123C145.337 23.0078 145.698 22.6475 146.202 22.6475H159.607C160.112 22.6475 160.472 23.0078 160.472 23.5123C160.472 24.0889 160.112 24.4492 159.607 24.4492H153.77V39.0076C153.842 39.5121 153.481 39.8725 152.977 39.8725Z" fill="black"/>
<path d="M179.644 34.1792V23.5127C179.644 23.2965 179.788 23.1523 180.004 23.1523C180.22 23.1523 180.365 23.2965 180.365 23.5127V39.008C180.365 39.2242 180.22 39.3684 180.004 39.3684C179.788 39.3684 179.644 39.2242 179.644 39.008V34.972H167.536V39.008C167.536 39.2242 167.392 39.3684 167.104 39.3684C166.887 39.3684 166.743 39.2242 166.743 39.008V23.5127C166.743 23.2965 166.887 23.1523 167.104 23.1523C167.392 23.1523 167.536 23.2965 167.536 23.5127V34.1792H179.644Z" fill="black"/>
<path d="M180.007 39.8734C179.502 39.8734 179.142 39.5131 179.142 39.0086V35.4771H167.971V39.0086C167.971 39.5131 167.61 39.8734 167.034 39.8734C166.529 39.8734 166.169 39.5131 166.169 39.0086V23.5133C166.169 23.0088 166.529 22.6484 167.034 22.6484C167.538 22.6484 167.971 23.0088 167.971 23.5133V33.6753H179.142V23.5133C179.142 23.0088 179.502 22.6484 180.007 22.6484C180.511 22.6484 180.871 23.0088 180.871 23.5133V39.0086C180.871 39.5131 180.511 39.8734 180.007 39.8734Z" fill="black"/>
<path d="M201.41 23.1562C201.698 23.1562 201.842 23.3004 201.842 23.5166C201.842 23.8049 201.698 23.949 201.41 23.949H195.716C194.851 23.949 194.131 24.0932 193.41 24.4535C192.689 24.7418 192.04 25.1742 191.464 25.7508C190.887 26.3274 190.455 26.976 190.167 27.6967C189.878 28.4174 189.662 29.2102 189.662 30.003V30.8679H200.401C200.617 30.8679 200.761 31.012 200.761 31.2282C200.761 31.5165 200.617 31.6607 200.401 31.6607H189.662V32.5255C189.662 33.3904 189.806 34.1111 190.167 34.8318C190.455 35.5525 190.887 36.2011 191.464 36.7777C192.04 37.3543 192.689 37.7867 193.41 38.075C194.131 38.3633 194.923 38.5795 195.716 38.5795H201.41C201.698 38.5795 201.842 38.7236 201.842 39.0119C201.842 39.2281 201.698 39.3723 201.41 39.3723H195.716C194.779 39.3723 193.914 39.2281 193.122 38.8678C192.329 38.5074 191.608 38.0029 190.959 37.3543C190.311 36.7056 189.806 35.9849 189.446 35.1921C189.086 34.3994 188.941 33.4624 188.941 32.5976V30.003C188.941 29.0661 189.086 28.2012 189.446 27.4084C189.806 26.6157 190.311 25.895 190.887 25.2463C191.536 24.5977 192.257 24.1652 193.049 23.7328C193.914 23.3725 194.779 23.1562 195.716 23.1562H201.41V23.1562Z" fill="black"/>
<path d="M201.411 39.8717H195.718C194.709 39.8717 193.772 39.6555 192.907 39.2951C192.042 38.9348 191.249 38.3582 190.601 37.7096C189.952 37.0609 189.375 36.2681 189.015 35.4033C188.655 34.5384 188.438 33.6015 188.438 32.5925V29.9979C188.438 28.9889 188.655 28.052 189.015 27.1872C189.375 26.3223 189.952 25.5295 190.601 24.8809C191.249 24.2322 192.042 23.6557 192.907 23.2953C193.772 22.935 194.781 22.7188 195.718 22.7188H201.411C201.988 22.7188 202.348 23.0791 202.348 23.5836C202.348 24.1602 201.988 24.5205 201.411 24.5205H195.718C194.925 24.5205 194.204 24.6647 193.556 24.953C192.907 25.2412 192.33 25.6737 191.826 26.1782C191.321 26.6827 190.889 27.2592 190.601 27.9079C190.312 28.5565 190.168 29.2772 190.168 30.07V30.5024H200.402C200.907 30.5024 201.267 30.8628 201.267 31.3673C201.267 31.9439 200.907 32.3042 200.402 32.3042H190.168V32.7367C190.168 33.5294 190.312 34.2501 190.601 34.8988C190.889 35.5474 191.321 36.124 191.826 36.6285C192.33 37.133 192.907 37.5654 193.556 37.8537C194.204 38.142 194.925 38.2861 195.718 38.2861H201.411C201.988 38.2861 202.348 38.6465 202.348 39.2231C202.348 39.5113 201.988 39.8717 201.411 39.8717Z" fill="black"/>
<path d="M223.608 26.9704C223.608 27.1866 223.464 27.3307 223.247 27.3307C222.959 27.3307 222.815 27.1866 222.815 26.9704C222.815 26.1055 222.527 25.3848 221.95 24.7361L221.662 24.5199C221.085 24.0875 220.509 23.8713 219.788 23.8713H213.085C212.365 23.8713 211.716 24.0875 211.139 24.5199L210.851 24.7361C210.275 25.3127 209.986 26.1055 209.986 26.9704C209.986 27.7631 210.203 28.4118 210.563 28.8442C210.995 29.2766 211.5 29.7091 212.148 29.9973C212.797 30.2856 213.518 30.5018 214.311 30.646C215.103 30.7901 215.968 30.9343 216.833 31.0063C217.698 31.1505 218.563 31.2226 219.356 31.4388C220.148 31.5829 220.941 31.7991 221.518 32.1595C222.166 32.4478 222.671 32.8802 223.103 33.4568C223.464 33.9613 223.68 34.682 223.68 35.5468C223.68 36.1234 223.608 36.6279 223.392 37.0603C223.175 37.5648 222.887 37.9252 222.527 38.2855C222.166 38.6459 221.734 38.9342 221.301 39.0783C220.869 39.2945 220.365 39.3666 219.788 39.3666H212.797C211.716 39.3666 210.851 39.0062 210.058 38.2135L209.986 38.0693C209.338 37.3486 208.977 36.5558 208.977 35.5468V35.4027C208.977 35.1865 209.121 35.0423 209.338 35.0423C209.626 35.0423 209.77 35.1865 209.77 35.4027C209.77 36.1955 210.058 36.9162 210.563 37.4927L210.635 37.6369C211.212 38.2135 211.932 38.5017 212.797 38.5017H219.788C220.22 38.5017 220.581 38.4297 221.013 38.2855C221.374 38.1414 221.734 37.9252 221.95 37.6369C222.238 37.3486 222.455 37.0603 222.599 36.6279C222.743 36.2675 222.815 35.8351 222.815 35.4027C222.815 34.4658 222.599 33.745 222.094 33.3126C221.59 32.8802 221.013 32.5198 220.292 32.3036C219.572 32.0874 218.851 31.9433 218.058 31.8712C217.265 31.7991 216.617 31.655 216.04 31.5829C215.031 31.4388 214.166 31.2946 213.302 31.1505C212.437 30.9343 211.716 30.7181 211.067 30.3577C210.419 29.9973 209.914 29.5649 209.554 29.0604C209.194 28.5559 209.049 27.8352 209.049 27.0424C209.049 25.9614 209.41 25.0965 210.203 24.3037L210.275 24.2316C210.995 23.5109 211.932 23.2227 212.941 23.2227H219.572C220.581 23.2227 221.446 23.583 222.238 24.2316L222.31 24.3037C223.247 25.0244 223.608 25.8893 223.608 26.9704Z" fill="black"/>
<path d="M219.86 39.8731H212.869C211.644 39.8731 210.635 39.4406 209.77 38.5758C209.77 38.5758 209.77 38.5758 209.698 38.5037L209.626 38.4316C208.906 37.6388 208.473 36.7019 208.473 35.6209V35.4767C208.473 34.9722 208.833 34.6119 209.338 34.6119C209.842 34.6119 210.275 34.9722 210.275 35.4767C210.275 36.1254 210.491 36.7019 210.996 37.2064L211.068 37.3506C211.572 37.8551 212.149 38.0713 212.869 38.0713H219.86C220.221 38.0713 220.581 37.9992 220.869 37.8551C221.158 37.7109 221.446 37.4947 221.662 37.2785C221.878 37.0623 222.095 36.774 222.239 36.4136C222.383 36.1254 222.455 35.765 222.455 35.4046C222.455 34.6119 222.239 34.0353 221.878 33.6749C221.446 33.2425 220.941 32.9542 220.293 32.8101C219.644 32.5939 218.923 32.4497 218.203 32.3777C217.41 32.3056 216.761 32.1614 216.185 32.0894C215.176 31.9452 214.239 31.8011 213.374 31.5849C212.509 31.3687 211.716 31.0804 210.996 30.72C210.275 30.3597 209.698 29.8552 209.338 29.2065C208.906 28.6299 208.689 27.8372 208.689 26.9002C208.689 25.7471 209.122 24.666 209.987 23.8012L210.059 23.7291C210.924 22.9363 211.933 22.5039 213.086 22.5039H219.716C220.869 22.5039 221.878 22.8643 222.671 23.657L222.743 23.7291C223.608 24.594 224.041 25.603 224.041 26.8282C224.041 27.3327 223.68 27.693 223.176 27.693C222.599 27.693 222.239 27.3327 222.239 26.8282C222.239 26.1075 222.023 25.5309 221.518 25.0264L221.23 24.8102C220.797 24.4498 220.221 24.2336 219.644 24.2336H213.086C212.509 24.2336 211.933 24.4498 211.5 24.8102L211.284 25.0264C210.779 25.5309 210.563 26.1075 210.563 26.8282C210.563 27.4768 210.707 28.0534 211.068 28.4137C211.428 28.8462 211.86 29.1344 212.437 29.4227C213.014 29.711 213.734 29.8552 214.527 29.9993C215.32 30.1434 216.185 30.2876 217.05 30.3597C217.914 30.5038 218.779 30.648 219.572 30.7921C220.437 30.9362 221.23 31.2245 221.878 31.5128C222.599 31.8732 223.176 32.3056 223.608 32.9542C224.041 33.5308 224.329 34.3956 224.329 35.3326C224.329 35.9091 224.185 36.4857 223.968 37.0623C223.752 37.5668 223.392 38.0713 223.032 38.4316C222.599 38.792 222.167 39.1523 221.662 39.3686C221.014 39.7289 220.509 39.8731 219.86 39.8731Z" fill="black"/>
<path d="M232.904 39.0065C232.904 39.2228 232.76 39.3669 232.472 39.3669C232.255 39.3669 232.111 39.2228 232.111 39.0065V23.5112C232.111 23.295 232.255 23.1509 232.472 23.1509C232.76 23.1509 232.904 23.295 232.904 23.5112V39.0065Z" fill="black"/>
<path d="M232.472 39.8725C231.968 39.8725 231.607 39.5121 231.607 39.0076V23.5123C231.607 23.0078 231.968 22.6475 232.472 22.6475C232.977 22.6475 233.409 23.0078 233.409 23.5123V39.0076C233.409 39.5121 233.049 39.8725 232.472 39.8725Z" fill="black"/>
<path d="M242.058 23.7979C241.842 23.7979 241.698 23.6537 241.698 23.4375C241.698 23.2213 241.842 23.0771 242.058 23.0771H253.157C253.517 23.0771 253.878 23.1492 254.166 23.2934C254.454 23.4375 254.743 23.6537 255.031 23.8699C255.247 24.0861 255.463 24.3744 255.607 24.7348C255.752 25.0951 255.824 25.3834 255.824 25.8159C255.824 26.3204 255.68 26.7528 255.463 27.1852C255.247 27.6176 254.887 27.9059 254.454 28.1942L242.923 34.9689C242.635 35.113 242.418 35.4013 242.202 35.6896C241.986 35.9779 241.914 36.2662 241.914 36.6265C241.914 37.2031 242.13 37.7076 242.491 38.068C242.851 38.5004 243.355 38.6445 243.932 38.6445H255.68C255.896 38.6445 256.04 38.7887 256.04 39.0049C256.04 39.2211 255.896 39.3652 255.68 39.3652H244.076C243.716 39.3652 243.355 39.2932 242.995 39.149C242.707 39.0049 242.418 38.7887 242.13 38.5725C241.914 38.3562 241.698 38.068 241.554 37.7076C241.409 37.3472 241.337 37.059 241.337 36.6265C241.337 36.122 241.482 35.6896 241.698 35.2572C241.914 34.8248 242.274 34.5365 242.635 34.3203L254.166 27.5456C254.454 27.4014 254.671 27.1131 254.887 26.8249C255.103 26.5366 255.175 26.1762 255.103 25.8159C255.103 25.2393 254.887 24.7348 254.526 24.3744C254.166 24.0141 253.662 23.7979 253.157 23.7979H242.058Z" fill="black"/>
<path d="M255.824 39.8725H244.077C243.644 39.8725 243.212 39.8004 242.779 39.5842C242.419 39.44 242.059 39.2238 241.77 38.9355C241.482 38.6473 241.266 38.2869 241.05 37.9265C240.906 37.5662 240.833 37.1338 240.833 36.7013C240.833 36.1248 240.978 35.5482 241.266 35.1158C241.554 34.6834 241.915 34.2509 242.419 33.9626L253.95 27.1879C254.167 27.0438 254.383 26.8997 254.527 26.6834C254.671 26.4672 254.743 26.251 254.671 25.9627C254.671 25.4582 254.527 25.0979 254.239 24.8096C253.95 24.5213 253.59 24.3772 253.23 24.3772H242.131C241.626 24.3772 241.266 24.0168 241.266 23.5123C241.266 23.0078 241.626 22.6475 242.131 22.6475H253.23C253.662 22.6475 254.095 22.7195 254.455 22.9357C254.815 23.0799 255.176 23.2961 255.464 23.5844C255.752 23.8727 255.968 24.233 256.185 24.5934C256.329 24.9537 256.473 25.3862 256.473 25.8186C256.473 26.3952 256.329 26.8997 256.041 27.4042C255.752 27.9087 255.392 28.269 254.887 28.5573L243.356 35.332C243.14 35.4761 242.996 35.6203 242.851 35.9086C242.707 36.1248 242.635 36.341 242.635 36.5572C242.635 36.9896 242.779 37.35 243.068 37.7103C243.356 37.9986 243.716 38.1428 244.149 38.1428H255.896C256.401 38.1428 256.761 38.5031 256.761 39.0076C256.689 39.5121 256.329 39.8725 255.824 39.8725Z" fill="black"/>
<path d="M276.219 23.1562C276.508 23.1562 276.652 23.3004 276.652 23.5166C276.652 23.8049 276.508 23.949 276.219 23.949H270.526C269.661 23.949 268.94 24.0932 268.219 24.4535C267.499 24.7418 266.85 25.1742 266.273 25.7508C265.697 26.3274 265.264 26.976 264.976 27.6967C264.688 28.4174 264.472 29.2102 264.472 30.003V30.8679H275.21C275.427 30.8679 275.571 31.012 275.571 31.2282C275.571 31.5165 275.427 31.6607 275.21 31.6607H264.472V32.5255C264.472 33.3904 264.616 34.1111 264.976 34.8318C265.264 35.5525 265.697 36.2011 266.273 36.7777C266.85 37.3543 267.499 37.7867 268.219 38.075C268.94 38.3633 269.733 38.5795 270.526 38.5795H276.219C276.508 38.5795 276.652 38.7236 276.652 39.0119C276.652 39.2281 276.508 39.3723 276.219 39.3723H270.526C269.589 39.3723 268.724 39.2281 267.931 38.8678C267.138 38.5074 266.418 38.0029 265.769 37.3543C265.12 36.7056 264.616 35.9849 264.255 35.1921C263.895 34.3994 263.751 33.4624 263.751 32.5976V30.003C263.751 29.0661 263.895 28.2012 264.255 27.4084C264.616 26.6157 265.12 25.895 265.697 25.2463C266.346 24.5977 267.066 24.1652 267.859 23.7328C268.724 23.3725 269.589 23.1562 270.526 23.1562H276.219V23.1562Z" fill="black"/>
<path d="M276.219 39.8717H270.525C269.516 39.8717 268.579 39.6555 267.714 39.2951C266.85 38.9348 266.057 38.3582 265.408 37.7096C264.76 37.0609 264.183 36.2681 263.823 35.4033C263.462 34.5384 263.246 33.6015 263.246 32.5925V29.9979C263.246 28.9889 263.462 28.052 263.823 27.1872C264.183 26.3223 264.76 25.5295 265.408 24.8809C266.057 24.2322 266.85 23.6557 267.714 23.2953C268.579 22.935 269.588 22.7188 270.525 22.7188H276.219C276.795 22.7188 277.156 23.0791 277.156 23.5836C277.156 24.1602 276.795 24.5205 276.219 24.5205H270.525C269.733 24.5205 269.012 24.6647 268.363 24.953C267.715 25.2412 267.138 25.6737 266.633 26.1782C266.129 26.6827 265.697 27.2592 265.408 27.9079C265.12 28.5565 264.976 29.2772 264.976 30.07V30.5024H275.21C275.714 30.5024 276.075 30.8628 276.075 31.3673C276.075 31.9439 275.714 32.3042 275.21 32.3042H264.976V32.7367C264.976 33.5294 265.12 34.2501 265.408 34.8988C265.697 35.5474 266.129 36.124 266.633 36.6285C267.138 37.133 267.715 37.5654 268.363 37.8537C269.012 38.142 269.733 38.2861 270.525 38.2861H276.219C276.795 38.2861 277.156 38.6465 277.156 39.2231C277.084 39.5113 276.723 39.8717 276.219 39.8717Z" fill="black"/>
<path d="M284.941 38.4297C284.292 37.781 284.004 36.9882 284.004 36.1234V26.4659C284.004 25.5289 284.292 24.8082 284.941 24.1596L285.013 24.0875C285.662 23.5109 286.382 23.2227 287.247 23.2227H291.283C292.22 23.2227 293.085 23.4389 293.95 23.7992C294.815 24.1596 295.535 24.6641 296.112 25.3127C296.761 25.9614 297.193 26.6821 297.553 27.4749C297.914 28.2676 298.058 29.2046 298.058 30.0694V32.664C298.058 33.6009 297.914 34.4658 297.553 35.2585C297.193 36.0513 296.688 36.772 296.112 37.4207C295.463 38.0693 294.743 38.5738 293.95 38.9342C293.085 39.2945 292.22 39.4387 291.283 39.4387H287.319C286.454 39.4387 285.734 39.1504 285.085 38.5738L284.941 38.4297ZM285.806 38.0693C286.238 38.4297 286.743 38.5738 287.319 38.5738H291.355C292.148 38.5738 292.941 38.4297 293.661 38.0693C294.382 37.781 295.031 37.3486 295.607 36.772C296.184 36.1955 296.616 35.6189 296.905 34.8261C297.265 34.1054 297.409 33.3126 297.409 32.4478V29.8532C297.409 28.9883 297.265 28.2676 296.905 27.4749C296.544 26.7541 296.112 26.1055 295.607 25.5289C295.031 24.9524 294.382 24.592 293.661 24.2316C292.941 23.9434 292.148 23.7272 291.355 23.7272H287.319C286.743 23.7272 286.238 23.8713 285.806 24.2316L285.517 24.5199C285.013 25.0244 284.797 25.601 284.797 26.3217V35.9793C284.797 36.7 285.013 37.2765 285.517 37.781L285.806 38.0693Z" fill="black"/>
<path d="M291.355 39.8717H287.319C286.31 39.8717 285.445 39.5113 284.724 38.8627L284.652 38.7906C283.932 38.0699 283.571 37.133 283.571 36.124V26.4665C283.571 25.4575 283.932 24.5205 284.652 23.7998L284.724 23.7278C285.445 23.0791 286.31 22.7188 287.319 22.7188H291.355C292.364 22.7188 293.301 22.935 294.166 23.2953C295.031 23.6557 295.823 24.2322 296.472 24.8809C297.121 25.5295 297.625 26.3223 298.058 27.1872C298.418 28.052 298.634 28.9889 298.634 29.9979V32.5925C298.634 33.6015 298.418 34.5384 298.058 35.4033C297.697 36.2681 297.121 37.0609 296.472 37.7096C295.823 38.3582 295.031 38.9348 294.166 39.2951C293.301 39.6555 292.292 39.8717 291.355 39.8717ZM286.022 37.6375C286.454 37.9258 286.815 38.0699 287.319 38.0699H291.355C292.076 38.0699 292.796 37.9258 293.445 37.6375C294.094 37.3492 294.742 36.9168 295.247 36.4123C295.751 35.9078 296.184 35.3312 296.472 34.6826C296.76 34.0339 296.904 33.3132 296.904 32.5204V29.9259C296.904 29.1331 296.76 28.4124 296.472 27.7637C296.184 27.1151 295.751 26.4665 295.247 26.034C294.742 25.5295 294.166 25.1692 293.445 24.8088C292.796 24.5205 292.076 24.3764 291.355 24.3764H287.319C286.887 24.3764 286.454 24.5205 286.094 24.8088C286.094 24.8088 286.022 24.8088 286.022 24.8809L285.878 25.025C285.517 25.3854 285.301 25.8899 285.301 26.4665V36.124C285.301 36.7006 285.517 37.133 285.878 37.5654L286.022 37.6375Z" fill="black"/>
<path d="M50.0575 0L43.2699 11.8007H47.9724C47.0408 17.2574 42.2496 21.4719 36.5267 21.5163C34.974 21.5163 33.4213 21.9155 32.046 22.7141C30.0053 23.8675 28.5856 25.7751 27.9646 28.0377C27.3435 30.3002 27.654 32.6515 28.8518 34.6922C30.0053 36.7329 31.9129 38.1525 34.1754 38.7736C34.9296 38.9954 35.6838 39.0842 36.438 39.0842C37.9463 39.0842 39.4547 38.6849 40.8299 37.8864C42.8707 36.7329 44.2903 34.8253 44.9114 32.5627C45.5325 30.3002 45.2219 27.9489 44.0241 25.9082C43.6248 25.2428 43.1812 24.6661 42.6488 24.1337C47.5732 21.9599 51.1666 17.3461 51.8764 11.845H56.8451L50.0575 0ZM37.6801 25.5533C38.9223 25.9082 39.987 26.7068 40.6525 27.8159C41.3179 28.9249 41.4954 30.2558 41.1405 31.498C40.7856 32.7402 39.987 33.8049 38.8779 34.4704C37.7689 35.1358 36.438 35.3133 35.1958 34.9584C33.9536 34.6035 32.8889 33.8049 32.2234 32.6958C31.558 31.5867 31.3805 30.2558 31.7354 29.0137C32.0903 27.7715 32.8889 26.7068 33.998 26.0413C34.7522 25.5977 35.5507 25.3759 36.3936 25.3759C36.3936 25.3759 36.3936 25.3759 36.438 25.3759C36.438 25.3759 36.438 25.3759 36.4823 25.3759C36.8372 25.3759 37.2809 25.4202 37.6801 25.5533Z" fill="#0E0840"/>
<path opacity="0.5" d="M55.5155 40.5055L42.4727 36.6016L45.5781 49.8662L48.9941 46.6721C52.0552 51.3302 51.4341 57.6742 47.2639 61.6225C46.4654 62.3767 46.421 63.5745 47.1752 64.3731C47.9294 65.1716 49.1272 65.216 49.9257 64.4618C55.693 59.0494 56.4028 50.2211 51.8777 43.9659L55.5155 40.5055Z" fill="#0E0840"/>
<path opacity="0.5" d="M17.7153 39.6629L27.7415 30.4796L14.7873 26.3538L15.8077 30.9233C10.2179 31.1895 5.07176 27.4186 3.82958 21.7844C3.60777 20.7197 2.54304 20.0542 1.52269 20.3204C0.457965 20.5422 -0.207486 21.607 0.0586944 22.6273C1.78887 30.3465 8.97574 35.4927 16.695 34.7829L17.7153 39.6629Z" fill="#0E0840"/>
<path opacity="0.5" d="M55.5155 40.5055L42.4727 36.6016L45.5781 49.8662L48.9941 46.6721C52.0552 51.3302 51.4341 57.6742 47.2639 61.6225C46.4654 62.3767 46.421 63.5745 47.1752 64.3731C47.9294 65.1716 49.1272 65.216 49.9257 64.4618C55.693 59.0494 56.4028 50.2211 51.8777 43.9659L55.5155 40.5055Z" fill="#0E0840"/>
<path opacity="0.5" d="M17.7153 39.6629L27.7415 30.4796L14.7873 26.3538L15.8077 30.9233C10.2179 31.1895 5.07176 27.4186 3.82958 21.7844C3.60777 20.7197 2.54304 20.0542 1.52269 20.3204C0.457965 20.5422 -0.207486 21.607 0.0586944 22.6273C1.78887 30.3465 8.97574 35.4927 16.695 34.7829L17.7153 39.6629Z" fill="#0E0840"/>
<path opacity="0.5" d="M55.5155 40.5055L42.4727 36.6016L45.5781 49.8662L48.9941 46.6721C52.0552 51.3302 51.4341 57.6742 47.2639 61.6225C46.4654 62.3767 46.421 63.5745 47.1752 64.3731C47.9294 65.1716 49.1272 65.216 49.9257 64.4618C55.693 59.0494 56.4028 50.2211 51.8777 43.9659L55.5155 40.5055Z" fill="#0E0840"/>
<path opacity="0.5" d="M17.7153 39.6629L27.7415 30.4796L14.7873 26.3538L15.8077 30.9233C10.2179 31.1895 5.07176 27.4186 3.82958 21.7844C3.60777 20.7197 2.54304 20.0542 1.52269 20.3204C0.457965 20.5422 -0.207486 21.607 0.0586944 22.6273C1.78887 30.3465 8.97574 35.4927 16.695 34.7829L17.7153 39.6629Z" fill="#0E0840"/>
<path opacity="0.5" d="M55.5155 40.5055L42.4727 36.6016L45.5781 49.8662L48.9941 46.6721C52.0552 51.3302 51.4341 57.6742 47.2639 61.6225C46.4654 62.3767 46.421 63.5745 47.1752 64.3731C47.9294 65.1716 49.1272 65.216 49.9257 64.4618C55.693 59.0494 56.4028 50.2211 51.8777 43.9659L55.5155 40.5055Z" fill="#0E0840"/>
<path opacity="0.5" d="M17.7153 39.6629L27.7415 30.4796L14.7873 26.3538L15.8077 30.9233C10.2179 31.1895 5.07176 27.4186 3.82958 21.7844C3.60777 20.7197 2.54304 20.0542 1.52269 20.3204C0.457965 20.5422 -0.207486 21.607 0.0586944 22.6273C1.78887 30.3465 8.97574 35.4927 16.695 34.7829L17.7153 39.6629Z" fill="#0E0840"/>
<path opacity="0.5" d="M55.5155 40.5055L42.4727 36.6016L45.5781 49.8662L48.9941 46.6721C52.0552 51.3302 51.4341 57.6742 47.2639 61.6225C46.4654 62.3767 46.421 63.5745 47.1752 64.3731C47.9294 65.1716 49.1272 65.216 49.9257 64.4618C55.693 59.0494 56.4028 50.2211 51.8777 43.9659L55.5155 40.5055Z" fill="#0E0840"/>
<path opacity="0.5" d="M17.7153 39.6629L27.7415 30.4796L14.7873 26.3538L15.8077 30.9233C10.2179 31.1895 5.07176 27.4186 3.82958 21.7844C3.60777 20.7197 2.54304 20.0542 1.52269 20.3204C0.457965 20.5422 -0.207486 21.607 0.0586944 22.6273C1.78887 30.3465 8.97574 35.4927 16.695 34.7829L17.7153 39.6629Z" fill="#0E0840"/>
</svg>
