<svg id="Layer_1" data-name="Layer 1" xmlns="http://www.w3.org/2000/svg" viewBox="0 0 381.31 602.57"><defs><style>.cls-1{fill:#605d9c;}.cls-2{fill:#a3195b;}.cls-3{fill:#1d1d1b;}.cls-4{font-size:24px;fill:#29235c;font-family:Inter-Regular, Inter;}.cls-5{letter-spacing:-0.02em;}</style></defs><rect class="cls-1" x="111.88" y="75.2" width="48" height="48" transform="translate(-30.35 125.13) rotate(-45)"/><rect class="cls-1" x="77.93" y="75.2" width="48" height="48" transform="translate(-40.29 101.13) rotate(-45)"/><rect class="cls-1" x="101.93" y="65.26" width="33.94" height="67.88"/><rect class="cls-2" x="106.9" y="370.89" width="24" height="72" transform="translate(490.7 610.53) rotate(135)"/><rect class="cls-2" x="82.9" y="394.89" width="72" height="24" transform="translate(490.7 610.53) rotate(135)"/><rect class="cls-1" x="111.88" y="178.32" width="48" height="48" transform="translate(-103.26 155.34) rotate(-45)"/><rect class="cls-1" x="77.93" y="178.32" width="48" height="48" transform="translate(-113.2 131.34) rotate(-45)"/><rect class="cls-1" x="101.93" y="178.32" width="33.94" height="48"/><rect class="cls-1" x="106.9" y="269.9" width="24" height="72" transform="translate(419.29 438.13) rotate(135)"/><rect class="cls-1" x="82.9" y="293.9" width="72" height="24" transform="translate(419.29 438.13) rotate(135)"/><rect class="cls-1" x="94.9" y="281.9" width="48" height="48"/><rect class="cls-2" x="114.24" y="291.9" width="9.33" height="28" transform="translate(419.29 438.13) rotate(135)"/><rect class="cls-2" x="104.9" y="301.24" width="28" height="9.33" transform="translate(419.29 438.13) rotate(135)"/><rect class="cls-2" x="106.9" y="473.09" width="24" height="72" transform="translate(562.96 784.99) rotate(135)"/><rect class="cls-2" x="82.9" y="497.09" width="72" height="24" transform="translate(562.96 784.99) rotate(135)"/><rect class="cls-3" x="106.9" y="497.09" width="24" height="24"/><text class="cls-4" transform="translate(212.28 110.06)">Nominal</text><text class="cls-4" transform="translate(212.28 213.17)">O<tspan class="cls-5" x="18.27" y="0">r</tspan><tspan x="26.79" y="0">dinal</tspan></text><text class="cls-4" transform="translate(212.28 316.29)">Affine</text><text class="cls-4" transform="translate(212.28 417.74)">Scale</text><text class="cls-4" transform="translate(212.28 519.2)">Ring</text></svg>
