<svg id="Layer_1" data-name="Layer 1" xmlns="http://www.w3.org/2000/svg" viewBox="0 0 599.78 386.65"><defs><style>.cls-1{fill:#c6c6c6;}.cls-2{fill:#f6f6f6;}.cls-3{fill:#e99e64;}.cls-4{fill:#4298a0;}.cls-5{font-size:24px;fill:#29235c;font-family:Inter-Regular, Inter;}.cls-6{letter-spacing:-0.02em;}.cls-7{letter-spacing:-0.01em;}.cls-8{fill:none;}</style></defs><rect class="cls-1" x="113.26" y="65.49" width="200" height="50"/><rect class="cls-2" x="125.36" y="79.99" width="25" height="25" transform="translate(300.74 60.4) rotate(135)"/><rect class="cls-3" x="113.26" y="168.6" width="200" height="50"/><rect class="cls-2" x="135.42" y="185.27" width="16.67" height="16.67" transform="translate(-94.79 158.35) rotate(-45)"/><rect class="cls-2" x="123.63" y="185.27" width="16.67" height="16.67" transform="translate(-98.24 150.02) rotate(-45)"/><rect class="cls-2" x="131.97" y="181.82" width="11.79" height="23.57"/><rect class="cls-4" x="113.26" y="271.71" width="200" height="50"/><rect class="cls-2" x="133.69" y="284.21" width="8.33" height="25" transform="translate(25.53 604) rotate(-135)"/><rect class="cls-2" x="125.36" y="292.55" width="25" height="8.33" transform="translate(25.53 604) rotate(-135)"/><rect class="cls-2" x="129.52" y="288.38" width="16.67" height="16.67"/><text class="cls-5" transform="translate(384.03 99.21)">Model</text><text class="cls-5" transform="translate(384.03 202.33)">Disc<tspan class="cls-6" x="48.89" y="0">r</tspan><tspan x="57.41" y="0">e</tspan><tspan class="cls-7" x="71.39" y="0">t</tspan><tspan x="79.98" y="0">e</tspan></text><text class="cls-5" transform="translate(384.03 305.44)">Continuous</text><rect class="cls-8" width="599.78" height="386.65"/></svg>
