<svg xmlns="http://www.w3.org/2000/svg" viewBox="0 0 1747.66 1093.05"><defs><style>.cls-1{isolation:isolate;}.cls-2{fill:#605d9c;}.cls-3{fill:#4f4b92;}.cls-4,.cls-5,.cls-9{fill:#1d1d1b;}.cls-4{opacity:0.1;}.cls-4,.cls-5{mix-blend-mode:darken;}.cls-5{opacity:0.03;}.cls-6{fill:#342f72;}.cls-7{fill:#8789b2;}.cls-11,.cls-13,.cls-17,.cls-26,.cls-8{fill:none;stroke-miterlimit:10;stroke-width:2px;}.cls-8{stroke:#1d1d1b;}.cls-10{fill:#c6c6c6;}.cls-11{stroke:#f49739;}.cls-12,.cls-15{fill:#f49739;}.cls-13{stroke:#fecb37;}.cls-14,.cls-16{fill:#fecb37;}.cls-15,.cls-16,.cls-19{font-size:22px;}.cls-15,.cls-16,.cls-19,.cls-20,.cls-21{font-family:Inter-Regular, Inter;}.cls-17{stroke:#41c0f0;}.cls-18,.cls-19{fill:#41c0f0;}.cls-20{font-size:26px;}.cls-20,.cls-21,.cls-25{fill:#f6f6f6;}.cls-21{font-size:24px;}.cls-22{letter-spacing:-0.01em;}.cls-23{letter-spacing:-0.07em;}.cls-24{letter-spacing:0em;}.cls-26{stroke:#f6f6f6;}.cls-27{letter-spacing:0.01em;}</style></defs><g class="cls-1"><g id="Layer_2" data-name="Layer 2"><rect class="cls-2" width="1748.61" height="1093.05"/><rect class="cls-3" width="346.48" height="1093.05"/><rect class="cls-3" width="1748.37" height="196.58"/><rect class="cls-4" width="346.48" height="196.58"/><rect class="cls-5" y="454.46" width="1748.61" height="232.9"/></g><g id="Layer_1" data-name="Layer 1"><rect class="cls-3" x="546.04" y="521.91" width="150" height="50"/><rect class="cls-6" x="546.04" y="571.91" width="50" height="50"/><rect class="cls-7" x="596.04" y="571.91" width="50" height="50"/><rect class="cls-6" x="646.04" y="571.91" width="50" height="50"/><rect class="cls-3" x="596.04" y="307.82" width="50" height="50"/><rect class="cls-3" x="580.03" y="725.76" width="70.89" height="35.44"/><rect class="cls-6" x="580.03" y="761.2" width="35.44" height="35.44"/><rect class="cls-7" x="615.47" y="761.2" width="35.44" height="35.44"/><rect class="cls-3" x="562.31" y="955.25" width="106.33" height="35.44"/><rect class="cls-6" x="562.31" y="990.69" width="35.44" height="35.44"/><rect class="cls-7" x="597.75" y="990.69" width="35.44" height="35.44"/><rect class="cls-6" x="633.2" y="990.69" width="35.44" height="35.44"/><rect class="cls-3" x="668.64" y="840.5" width="70.89" height="35.44"/><rect class="cls-6" x="668.64" y="875.94" width="35.44" height="35.44"/><rect class="cls-7" x="704.08" y="875.94" width="35.44" height="35.44"/><rect class="cls-3" x="476.25" y="840.5" width="141.77" height="35.44"/><rect class="cls-6" x="476.25" y="875.94" width="35.44" height="35.44"/><rect class="cls-7" x="511.69" y="875.94" width="35.44" height="35.44"/><rect class="cls-6" x="547.14" y="875.94" width="35.44" height="35.44"/><rect class="cls-7" x="582.58" y="875.94" width="35.44" height="35.44"/><polyline class="cls-8" points="547.14 828.43 547.14 817.86 615.48 817.86 615.48 796.64"/><path class="cls-9" d="M547.14,840.5c2.11-5.68,5.7-12.73,9.51-17.09l-9.51,3.44-9.51-3.44C541.44,827.77,545,834.82,547.14,840.5Z"/><polyline class="cls-8" points="618.02 875.94 642.93 875.94 642.93 818.57 704.08 818.57 704.08 828.43"/><path class="cls-9" d="M704.08,840.5c-2.11-5.68-5.7-12.73-9.51-17.09l9.51,3.44,9.51-3.44C709.78,827.77,706.19,834.82,704.08,840.5Z"/><polyline class="cls-8" points="547.14 911.39 547.14 933.67 600.3 933.67 600.3 943.17"/><path class="cls-9" d="M600.3,955.25c-2.11-5.68-5.7-12.73-9.51-17.1l9.51,3.44,9.51-3.44C606,942.52,602.41,949.57,600.3,955.25Z"/><polyline class="cls-8" points="704.08 911.39 704.08 933.32 629.65 933.32 629.65 943.17"/><path class="cls-9" d="M629.65,955.25c-2.1-5.68-5.7-12.73-9.51-17.1l9.51,3.44,9.51-3.44C635.35,942.52,631.76,949.57,629.65,955.25Z"/><rect class="cls-3" x="1418.53" y="521.91" width="150" height="50"/><rect class="cls-6" x="1418.53" y="571.91" width="50" height="50"/><rect class="cls-7" x="1468.53" y="571.91" width="50" height="50"/><rect class="cls-6" x="1518.53" y="571.91" width="50" height="50"/><rect class="cls-3" x="1468.53" y="307.82" width="50" height="50"/><circle class="cls-10" cx="1047.66" cy="332.82" r="25"/><circle class="cls-10" cx="1047.66" cy="571.91" r="50"/><circle class="cls-10" cx="1028.61" cy="876.63" r="50"/><circle class="cls-10" cx="1066.71" cy="876.63" r="50"/><circle class="cls-10" cx="1047.66" cy="857.58" r="50"/><circle class="cls-10" cx="1047.66" cy="895.68" r="50"/><line class="cls-11" x1="691.87" y1="332.82" x2="964.13" y2="332.82"/><path class="cls-12" d="M976.2,332.82c-5.68,2.1-12.73,5.7-17.1,9.51l3.44-9.51-3.44-9.51C963.47,327.11,970.52,330.71,976.2,332.82Z"/><line class="cls-13" x1="1119.23" y1="332.82" x2="1409.61" y2="332.82"/><path class="cls-14" d="M1421.68,332.82c-5.68,2.1-12.73,5.7-17.1,9.51l3.44-9.51-3.44-9.51C1409,327.11,1416,330.71,1421.68,332.82Z"/><text class="cls-15" transform="translate(787.64 321.94)">Analysis</text><text class="cls-16" transform="translate(1223.32 321.94)">Curation</text><path class="cls-17" d="M1071.11,341.5c17.88,6.61,16.92,36-4.69,45-16.74,6.93-35.82-5.22-35.82-21.13"/><path class="cls-18" d="M1034,353.75c.59,6,2.27,13.76,4.84,19l-8.32-5.76-10.07.9C1025.24,364.6,1030.52,358.71,1034,353.75Z"/><text class="cls-19" transform="translate(1047.18 413.12)">Augmentation</text><line class="cls-11" x1="742.42" y1="571.91" x2="939.13" y2="571.91"/><path class="cls-12" d="M951.2,571.91c-5.68,2.11-12.73,5.7-17.1,9.51l3.44-9.51-3.44-9.51C938.47,566.21,945.52,569.8,951.2,571.91Z"/><line class="cls-13" x1="1144.12" y1="571.91" x2="1358.99" y2="571.91"/><path class="cls-14" d="M1371.06,571.91c-5.68,2.11-12.73,5.7-17.09,9.51l3.44-9.51L1354,562.4C1358.33,566.21,1365.38,569.8,1371.06,571.91Z"/><line class="cls-11" x1="785.99" y1="876.63" x2="920.21" y2="876.63"/><path class="cls-12" d="M932.28,876.63c-5.68,2.11-12.72,5.7-17.09,9.51l3.44-9.51-3.44-9.51C919.56,870.93,926.6,874.52,932.28,876.63Z"/><line class="cls-13" x1="1163.17" y1="876.63" x2="1300.32" y2="876.63"/><path class="cls-14" d="M1312.39,876.63c-5.68,2.11-12.73,5.7-17.1,9.51l3.44-9.51-3.44-9.51C1299.66,870.93,1306.71,874.52,1312.39,876.63Z"/><text class="cls-20" transform="translate(51.31 334.82)">Data Series/Column</text><text class="cls-21" transform="translate(72.57 574.91)">Data <tspan class="cls-22" x="59.8" y="0">F</tspan><tspan x="73.74" y="0">rame/</tspan><tspan class="cls-23" x="139.6" y="0">T</tspan><tspan class="cls-24" x="153.24" y="0">able</tspan></text><text class="cls-20" transform="translate(114.74 886.94)">Database</text><path class="cls-25" d="M592.27,82.29a11.53,11.53,0,0,1-1.08,5.17,8.17,8.17,0,0,1-3,3.36,8.44,8.44,0,0,1-8.61,0,8.17,8.17,0,0,1-3-3.36,12.91,12.91,0,0,1,0-10.34,8,8,0,0,1,3-3.36,8.38,8.38,0,0,1,8.61,0,8,8,0,0,1,3,3.36A11.5,11.5,0,0,1,592.27,82.29Zm-2.21,0a9.56,9.56,0,0,0-.82-4.15A6,6,0,0,0,587,75.58a6,6,0,0,0-6.21,0,6.07,6.07,0,0,0-2.21,2.56,11,11,0,0,0,0,8.29A6,6,0,0,0,580.82,89,6,6,0,0,0,587,89a5.94,5.94,0,0,0,2.21-2.56A9.48,9.48,0,0,0,590.06,82.29Z"/><path class="cls-25" d="M595.82,91.74V77.56h2.1V79.7h.15a3.47,3.47,0,0,1,1.4-1.71,4.19,4.19,0,0,1,2.29-.65h.6a3.72,3.72,0,0,1,.55,0v2.21l-.5-.09a5.59,5.59,0,0,0-.83-.06,3.93,3.93,0,0,0-1.84.43,3.26,3.26,0,0,0-1.28,1.19,3.17,3.17,0,0,0-.46,1.71v9Z"/><path class="cls-25" d="M606.6,75.2a1.53,1.53,0,0,1-1.09-.44,1.41,1.41,0,0,1,0-2.08,1.53,1.53,0,0,1,1.09-.44,1.55,1.55,0,0,1,1.1.44,1.43,1.43,0,0,1,0,2.08A1.55,1.55,0,0,1,606.6,75.2Zm-1.11,16.54V77.56h2.18V91.74Z"/><path class="cls-25" d="M617.39,97.36a8.11,8.11,0,0,1-2.72-.41,5.53,5.53,0,0,1-1.89-1,5.65,5.65,0,0,1-1.19-1.39l1.73-1.22c.2.26.45.56.75.89a3.86,3.86,0,0,0,1.24.88,4.89,4.89,0,0,0,2.08.38,4.57,4.57,0,0,0,2.83-.84,3,3,0,0,0,1.12-2.6V89.12h-.19a10.15,10.15,0,0,1-.68,1,3.93,3.93,0,0,1-1.25,1,4.72,4.72,0,0,1-2.2.44,5.9,5.9,0,0,1-3.08-.81,5.58,5.58,0,0,1-2.15-2.37,8.16,8.16,0,0,1-.79-3.76,8.83,8.83,0,0,1,.76-3.8,5.87,5.87,0,0,1,2.14-2.51,5.58,5.58,0,0,1,3.15-.89,4.61,4.61,0,0,1,2.21.45,4,4,0,0,1,1.25,1c.29.38.52.7.68.94h.22V77.56h2.11V92.15a5,5,0,0,1-.83,3,4.83,4.83,0,0,1-2.22,1.69A8.4,8.4,0,0,1,617.39,97.36Zm-.08-7.8a3.94,3.94,0,0,0,2.22-.6,3.7,3.7,0,0,0,1.37-1.72,6.87,6.87,0,0,0,.47-2.7,7.28,7.28,0,0,0-.46-2.7A4,4,0,0,0,619.55,80a3.65,3.65,0,0,0-2.24-.67,3.72,3.72,0,0,0-2.3.7,4.31,4.31,0,0,0-1.38,1.89,7.31,7.31,0,0,0-.45,2.62,6.8,6.8,0,0,0,.46,2.61A3.91,3.91,0,0,0,615,88.92,3.86,3.86,0,0,0,617.31,89.56Z"/><path class="cls-25" d="M628.61,75.2a1.53,1.53,0,0,1-1.09-.44,1.41,1.41,0,0,1,0-2.08,1.53,1.53,0,0,1,1.09-.44,1.55,1.55,0,0,1,1.1.44,1.43,1.43,0,0,1,0,2.08A1.55,1.55,0,0,1,628.61,75.2ZM627.5,91.74V77.56h2.18V91.74Z"/><path class="cls-25" d="M635.85,83.21v8.53h-2.18V77.56h2.11v2.22H636A4.12,4.12,0,0,1,637.48,78a4.71,4.71,0,0,1,2.62-.66,5.21,5.21,0,0,1,2.52.58,4,4,0,0,1,1.68,1.77,6.65,6.65,0,0,1,.6,3v9h-2.18V82.88a3.69,3.69,0,0,0-.87-2.61,3.1,3.1,0,0,0-2.38-.94,3.72,3.72,0,0,0-1.86.46,3.28,3.28,0,0,0-1.29,1.32A4.37,4.37,0,0,0,635.85,83.21Z"/><path class="cls-25" d="M653.06,92.07a5.78,5.78,0,0,1-2.45-.51,4.12,4.12,0,0,1-1.74-1.48,4.19,4.19,0,0,1-.65-2.36,3.63,3.63,0,0,1,.48-2,3.39,3.39,0,0,1,1.29-1.2,6.54,6.54,0,0,1,1.77-.65c.65-.14,1.31-.26,2-.35l2.1-.25A3.26,3.26,0,0,0,657,83a.78.78,0,0,0,.37-.74v-.07a3,3,0,0,0-.74-2.13,3.06,3.06,0,0,0-2.25-.75,3.92,3.92,0,0,0-2.45.68,4,4,0,0,0-1.24,1.46l-2.07-.74a5,5,0,0,1,1.48-2,5.61,5.61,0,0,1,2-1,8.28,8.28,0,0,1,2.18-.29,8.69,8.69,0,0,1,1.57.16,5.24,5.24,0,0,1,1.73.66A3.83,3.83,0,0,1,659,79.7a5.6,5.6,0,0,1,.55,2.7v9.34h-2.18V89.82h-.11a3.73,3.73,0,0,1-.74,1,4.29,4.29,0,0,1-1.37.9A5.42,5.42,0,0,1,653.06,92.07Zm.33-1.95a4.35,4.35,0,0,0,2.19-.51,3.62,3.62,0,0,0,1.35-1.31,3.42,3.42,0,0,0,.45-1.69v-2a1.1,1.1,0,0,1-.6.3,10.2,10.2,0,0,1-1.07.24c-.41.06-.8.12-1.18.16l-.91.12a8.42,8.42,0,0,0-1.59.35,2.86,2.86,0,0,0-1.18.73,1.87,1.87,0,0,0-.45,1.32,1.93,1.93,0,0,0,.85,1.71A3.75,3.75,0,0,0,653.39,90.12Z"/><path class="cls-25" d="M665.73,72.83V91.74h-2.18V72.83Z"/><path class="cls-25" d="M600.27,123.74h-5.84V104.83h6.1a9.33,9.33,0,0,1,4.71,1.13,7.56,7.56,0,0,1,3,3.25,12.77,12.77,0,0,1,0,10.12,7.47,7.47,0,0,1-3.07,3.27A9.77,9.77,0,0,1,600.27,123.74Zm-3.55-2h3.4a7.64,7.64,0,0,0,3.89-.9,5.66,5.66,0,0,0,2.3-2.58,9.65,9.65,0,0,0,.75-4,9.54,9.54,0,0,0-.74-4,5.56,5.56,0,0,0-2.24-2.54,7,7,0,0,0-3.7-.9h-3.66Z"/><path class="cls-25" d="M617,124.07a5.74,5.74,0,0,1-2.45-.51,4.12,4.12,0,0,1-1.74-1.48,4.19,4.19,0,0,1-.65-2.36,3.63,3.63,0,0,1,.48-2,3.43,3.43,0,0,1,1.28-1.2,6.73,6.73,0,0,1,1.78-.65c.65-.14,1.3-.26,2-.35l2.1-.25A3.32,3.32,0,0,0,621,115a.79.79,0,0,0,.37-.74v-.07a3,3,0,0,0-.74-2.13,3.06,3.06,0,0,0-2.25-.75,3.9,3.9,0,0,0-2.45.68,4,4,0,0,0-1.24,1.46l-2.07-.74a5,5,0,0,1,1.48-2,5.53,5.53,0,0,1,2-1,8.26,8.26,0,0,1,2.17-.29,8.79,8.79,0,0,1,1.58.16,5.32,5.32,0,0,1,1.73.66,3.8,3.8,0,0,1,1.38,1.5,5.59,5.59,0,0,1,.56,2.7v9.34h-2.18v-1.92h-.11a3.73,3.73,0,0,1-.74,1,4.23,4.23,0,0,1-1.38.9A5.4,5.4,0,0,1,617,124.07Zm.33-1.95a4.31,4.31,0,0,0,2.18-.51,3.48,3.48,0,0,0,1.35-1.31,3.33,3.33,0,0,0,.46-1.69v-2a1.1,1.1,0,0,1-.61.3,9.65,9.65,0,0,1-1.07.24c-.4.06-.79.12-1.17.16l-.92.12a8.49,8.49,0,0,0-1.58.35,2.86,2.86,0,0,0-1.18.73,1.87,1.87,0,0,0-.45,1.32,1.94,1.94,0,0,0,.84,1.71A3.78,3.78,0,0,0,617.33,122.12Z"/><path class="cls-25" d="M633.66,109.56v1.85h-7.35v-1.85Zm-5.21-3.4h2.18v13.52a2.75,2.75,0,0,0,.27,1.38,1.33,1.33,0,0,0,.7.61,2.76,2.76,0,0,0,.91.15,3.2,3.2,0,0,0,.59,0l.37-.07.44,2a5.81,5.81,0,0,1-.61.17,4.78,4.78,0,0,1-1,.09,4.45,4.45,0,0,1-1.81-.4,3.53,3.53,0,0,1-1.45-1.21,3.4,3.4,0,0,1-.58-2Z"/><path class="cls-25" d="M641.12,124.07a5.74,5.74,0,0,1-2.45-.51,4,4,0,0,1-2.39-3.84,3.63,3.63,0,0,1,.48-2,3.43,3.43,0,0,1,1.28-1.2,6.73,6.73,0,0,1,1.78-.65c.65-.14,1.3-.26,2-.35l2.1-.25a3.26,3.26,0,0,0,1.18-.3.78.78,0,0,0,.38-.74v-.07a2.91,2.91,0,0,0-.75-2.13,3,3,0,0,0-2.25-.75A3.87,3.87,0,0,0,640,112a4.08,4.08,0,0,0-1.25,1.46l-2.07-.74a5.06,5.06,0,0,1,1.49-2,5.46,5.46,0,0,1,2-1,8.2,8.2,0,0,1,2.17-.29,8.79,8.79,0,0,1,1.58.16,5.27,5.27,0,0,1,1.72.66,3.83,3.83,0,0,1,1.39,1.5,5.59,5.59,0,0,1,.56,2.7v9.34h-2.18v-1.92h-.11a4,4,0,0,1-.74,1,4.46,4.46,0,0,1-1.38.9A5.4,5.4,0,0,1,641.12,124.07Zm.33-1.95a4.31,4.31,0,0,0,2.18-.51A3.55,3.55,0,0,0,645,120.3a3.44,3.44,0,0,0,.46-1.69v-2a1.18,1.18,0,0,1-.61.3,10.2,10.2,0,0,1-1.07.24c-.4.06-.79.12-1.17.16l-.92.12a8.31,8.31,0,0,0-1.58.35,2.9,2.9,0,0,0-1.19.73,1.91,1.91,0,0,0-.44,1.32,1.94,1.94,0,0,0,.84,1.71A3.76,3.76,0,0,0,641.45,122.12Z"/><path class="cls-25" d="M1434.76,91.74V72.83h11.41v2h-9.12v6.39h8.53v2h-8.53v6.43h9.27v2Z"/><path class="cls-25" d="M1452.19,83.21v8.53H1450V77.56h2.11v2.22h.18a4.06,4.06,0,0,1,1.52-1.74,4.71,4.71,0,0,1,2.62-.66A5.21,5.21,0,0,1,1459,78a4,4,0,0,1,1.68,1.77,6.65,6.65,0,0,1,.6,3v9h-2.18V82.88a3.69,3.69,0,0,0-.87-2.61,3.1,3.1,0,0,0-2.38-.94,3.67,3.67,0,0,0-1.86.46,3.16,3.16,0,0,0-1.29,1.32A4.37,4.37,0,0,0,1452.19,83.21Z"/><path class="cls-25" d="M1467.41,83.21v8.53h-2.18V72.83h2.18v7h.18a3.94,3.94,0,0,1,1.5-1.75,4.8,4.8,0,0,1,2.67-.65,5.38,5.38,0,0,1,2.54.57,4,4,0,0,1,1.7,1.77,6.64,6.64,0,0,1,.6,3v9h-2.18V82.88a3.68,3.68,0,0,0-.87-2.62,3.15,3.15,0,0,0-2.41-.93,3.9,3.9,0,0,0-1.92.46,3.25,3.25,0,0,0-1.33,1.32A4.26,4.26,0,0,0,1467.41,83.21Z"/><path class="cls-25" d="M1484.76,92.07a5.73,5.73,0,0,1-2.44-.51,4.09,4.09,0,0,1-1.75-1.48,4.19,4.19,0,0,1-.64-2.36,3.63,3.63,0,0,1,.48-2,3.36,3.36,0,0,1,1.28-1.2,6.6,6.6,0,0,1,1.78-.65c.65-.14,1.3-.26,2-.35l2.1-.25a3.26,3.26,0,0,0,1.18-.3.78.78,0,0,0,.38-.74v-.07a2.91,2.91,0,0,0-.75-2.13,3,3,0,0,0-2.25-.75,3.87,3.87,0,0,0-2.44.68,4.08,4.08,0,0,0-1.25,1.46l-2.07-.74a5.14,5.14,0,0,1,1.48-2,5.61,5.61,0,0,1,2-1,8.28,8.28,0,0,1,2.18-.29,8.69,8.69,0,0,1,1.57.16,5.24,5.24,0,0,1,1.73.66,3.83,3.83,0,0,1,1.39,1.5,5.6,5.6,0,0,1,.55,2.7v9.34h-2.17V89.82H1489a3.67,3.67,0,0,1-.73,1,4.46,4.46,0,0,1-1.38.9A5.42,5.42,0,0,1,1484.76,92.07Zm.34-1.95a4.31,4.31,0,0,0,2.18-.51,3.62,3.62,0,0,0,1.35-1.31,3.44,3.44,0,0,0,.46-1.69v-2a1.18,1.18,0,0,1-.61.3,10.2,10.2,0,0,1-1.07.24c-.4.06-.79.12-1.17.16l-.92.12a8.42,8.42,0,0,0-1.59.35,2.92,2.92,0,0,0-1.18.73,1.87,1.87,0,0,0-.45,1.32,2,2,0,0,0,.85,1.71A3.76,3.76,0,0,0,1485.1,90.12Z"/><path class="cls-25" d="M1497.43,83.21v8.53h-2.18V77.56h2.11v2.22h.18a4.12,4.12,0,0,1,1.52-1.74,4.71,4.71,0,0,1,2.62-.66,5.21,5.21,0,0,1,2.52.58,4,4,0,0,1,1.68,1.77,6.65,6.65,0,0,1,.6,3v9h-2.18V82.88a3.69,3.69,0,0,0-.87-2.61,3.1,3.1,0,0,0-2.38-.94,3.72,3.72,0,0,0-1.86.46,3.28,3.28,0,0,0-1.29,1.32A4.37,4.37,0,0,0,1497.43,83.21Z"/><path class="cls-25" d="M1516.23,92a5.93,5.93,0,0,1-5.65-3.54,9.51,9.51,0,0,1,0-7.59,6.26,6.26,0,0,1,2.24-2.6,6,6,0,0,1,3.35-.93,6.36,6.36,0,0,1,2.7.55,5.3,5.3,0,0,1,2,1.55,4.93,4.93,0,0,1,1,2.33h-2.18a3.42,3.42,0,0,0-1.11-1.72,3.3,3.3,0,0,0-2.29-.76A3.83,3.83,0,0,0,1514,80a4.35,4.35,0,0,0-1.49,1.86,6.92,6.92,0,0,0-.53,2.8,7.34,7.34,0,0,0,.52,2.86,4.32,4.32,0,0,0,1.48,1.9,4.11,4.11,0,0,0,3.79.37,3.19,3.19,0,0,0,1.17-.84,3.38,3.38,0,0,0,.69-1.33h2.18a5,5,0,0,1-2.82,3.84A6.19,6.19,0,0,1,1516.23,92Z"/><path class="cls-25" d="M1530.93,92a6.64,6.64,0,0,1-3.53-.91,6,6,0,0,1-2.28-2.55,8.53,8.53,0,0,1-.8-3.82,8.67,8.67,0,0,1,.8-3.84,6.27,6.27,0,0,1,2.23-2.61,6.06,6.06,0,0,1,3.36-.93,6.57,6.57,0,0,1,2.18.37,5.37,5.37,0,0,1,2,1.19,5.8,5.8,0,0,1,1.41,2.18,9.13,9.13,0,0,1,.53,3.35v.92h-10.93V83.51h8.71a4.69,4.69,0,0,0-.47-2.15,3.67,3.67,0,0,0-3.4-2,4,4,0,0,0-2.25.64,4.36,4.36,0,0,0-1.46,1.67,5,5,0,0,0-.5,2.2v1.25a6,6,0,0,0,.55,2.72,3.94,3.94,0,0,0,1.56,1.69,4.52,4.52,0,0,0,2.32.58,4.71,4.71,0,0,0,1.55-.24,3.32,3.32,0,0,0,1.21-.74,3.21,3.21,0,0,0,.78-1.24l2.11.6a4.59,4.59,0,0,1-1.12,1.87,5.35,5.35,0,0,1-1.94,1.26A7.07,7.07,0,0,1,1530.93,92Z"/><path class="cls-25" d="M1545.48,92a5.53,5.53,0,0,1-3.13-.9,6,6,0,0,1-2.12-2.55,10.21,10.21,0,0,1,0-7.78,6,6,0,0,1,2.13-2.54,5.59,5.59,0,0,1,3.16-.89,4.52,4.52,0,0,1,2.19.45,4,4,0,0,1,1.24,1c.28.38.51.7.67.94h.18v-7H1552V91.74h-2.11V89.56h-.25a11.92,11.92,0,0,1-.69,1,3.92,3.92,0,0,1-1.26,1A4.45,4.45,0,0,1,1545.48,92Zm.29-2a3.54,3.54,0,0,0,2.22-.69,4.3,4.3,0,0,0,1.38-1.91,7.92,7.92,0,0,0,.47-2.83,7.82,7.82,0,0,0-.46-2.78A4.14,4.14,0,0,0,1548,80a4.08,4.08,0,0,0-4.54,0,4.32,4.32,0,0,0-1.38,1.91,7.65,7.65,0,0,0-.45,2.7,7.74,7.74,0,0,0,.46,2.75,4.58,4.58,0,0,0,1.39,2A3.57,3.57,0,0,0,1545.77,90.08Z"/><path class="cls-25" d="M1472.76,123.74h-5.84V104.83h6.1a9.33,9.33,0,0,1,4.71,1.13,7.56,7.56,0,0,1,3,3.25,12.77,12.77,0,0,1,0,10.12,7.42,7.42,0,0,1-3.07,3.27A9.77,9.77,0,0,1,1472.76,123.74Zm-3.55-2h3.4a7.62,7.62,0,0,0,3.89-.9,5.66,5.66,0,0,0,2.3-2.58,9.64,9.64,0,0,0,.76-4,9.53,9.53,0,0,0-.75-4,5.56,5.56,0,0,0-2.24-2.54,7,7,0,0,0-3.7-.9h-3.66Z"/><path class="cls-25" d="M1489.49,124.07a5.78,5.78,0,0,1-2.45-.51,4.12,4.12,0,0,1-1.74-1.48,4.19,4.19,0,0,1-.65-2.36,3.63,3.63,0,0,1,.48-2,3.39,3.39,0,0,1,1.29-1.2,6.54,6.54,0,0,1,1.77-.65c.65-.14,1.31-.26,2-.35l2.1-.25a3.32,3.32,0,0,0,1.18-.3.78.78,0,0,0,.37-.74v-.07a3,3,0,0,0-.74-2.13,3.06,3.06,0,0,0-2.25-.75,3.9,3.9,0,0,0-2.45.68,4,4,0,0,0-1.24,1.46l-2.07-.74a5,5,0,0,1,1.48-2,5.61,5.61,0,0,1,2-1,8.28,8.28,0,0,1,2.18-.29,8.69,8.69,0,0,1,1.57.16,5.32,5.32,0,0,1,1.73.66,3.9,3.9,0,0,1,1.39,1.5,5.6,5.6,0,0,1,.55,2.7v9.34h-2.18v-1.92h-.11a3.73,3.73,0,0,1-.74,1,4.29,4.29,0,0,1-1.37.9A5.45,5.45,0,0,1,1489.49,124.07Zm.33-1.95a4.38,4.38,0,0,0,2.19-.51,3.52,3.52,0,0,0,1.34-1.31,3.33,3.33,0,0,0,.46-1.69v-2a1.1,1.1,0,0,1-.6.3,10.2,10.2,0,0,1-1.07.24c-.41.06-.8.12-1.18.16l-.91.12a8.42,8.42,0,0,0-1.59.35,2.86,2.86,0,0,0-1.18.73,1.87,1.87,0,0,0-.45,1.32,1.93,1.93,0,0,0,.85,1.71A3.75,3.75,0,0,0,1489.82,122.12Z"/><path class="cls-25" d="M1506.15,109.56v1.85h-7.35v-1.85Zm-5.21-3.4h2.18v13.52a2.75,2.75,0,0,0,.27,1.38,1.37,1.37,0,0,0,.7.61,2.76,2.76,0,0,0,.91.15,3.2,3.2,0,0,0,.59,0l.37-.07.45,2c-.15,0-.36.11-.62.17a4.71,4.71,0,0,1-1,.09,4.4,4.4,0,0,1-1.8-.4,3.49,3.49,0,0,1-1.46-1.21,3.4,3.4,0,0,1-.58-2Z"/><path class="cls-25" d="M1513.61,124.07a5.74,5.74,0,0,1-2.45-.51,4,4,0,0,1-2.39-3.84,3.63,3.63,0,0,1,.48-2,3.43,3.43,0,0,1,1.28-1.2,6.73,6.73,0,0,1,1.78-.65c.65-.14,1.3-.26,2-.35l2.1-.25a3.26,3.26,0,0,0,1.18-.3.78.78,0,0,0,.38-.74v-.07a3,3,0,0,0-.74-2.13,3.06,3.06,0,0,0-2.25-.75,3.9,3.9,0,0,0-2.45.68,4.08,4.08,0,0,0-1.25,1.46l-2.06-.74a5,5,0,0,1,1.48-2,5.53,5.53,0,0,1,2-1,8.2,8.2,0,0,1,2.17-.29,8.79,8.79,0,0,1,1.58.16,5.19,5.19,0,0,1,1.72.66,3.83,3.83,0,0,1,1.39,1.5,5.59,5.59,0,0,1,.56,2.7v9.34h-2.18v-1.92h-.11a4,4,0,0,1-.74,1,4.34,4.34,0,0,1-1.38.9A5.4,5.4,0,0,1,1513.61,124.07Zm.33-1.95a4.31,4.31,0,0,0,2.18-.51,3.48,3.48,0,0,0,1.35-1.31,3.33,3.33,0,0,0,.46-1.69v-2a1.14,1.14,0,0,1-.61.3,9.65,9.65,0,0,1-1.07.24c-.4.06-.79.12-1.17.16l-.92.12a8.31,8.31,0,0,0-1.58.35,2.79,2.79,0,0,0-1.18.73,1.87,1.87,0,0,0-.45,1.32,1.94,1.94,0,0,0,.84,1.71A3.78,3.78,0,0,0,1513.94,122.12Z"/><path class="cls-25" d="M982.32,56.83V75.74H980V56.83Z"/><path class="cls-25" d="M988.78,67.21v8.53H986.6V61.56h2.11v2.22h.18A4.06,4.06,0,0,1,990.41,62a4.71,4.71,0,0,1,2.62-.66,5.21,5.21,0,0,1,2.52.58,4,4,0,0,1,1.68,1.77,6.65,6.65,0,0,1,.6,3v9h-2.18V66.88a3.69,3.69,0,0,0-.87-2.61,3.1,3.1,0,0,0-2.38-.94,3.72,3.72,0,0,0-1.86.46,3.28,3.28,0,0,0-1.29,1.32A4.37,4.37,0,0,0,988.78,67.21Z"/><path class="cls-25" d="M1008.13,61.56v1.85h-7.64V61.56Zm-5.35,14.18V59.6a3.45,3.45,0,0,1,.57-2,3.55,3.55,0,0,1,1.49-1.22,4.7,4.7,0,0,1,1.93-.4,5.3,5.3,0,0,1,1.31.13,4,4,0,0,1,.76.24l-.63,1.88-.46-.14A3.1,3.1,0,0,0,1007,58a2,2,0,0,0-1.56.54,2.42,2.42,0,0,0-.47,1.6V75.74Z"/><path class="cls-25" d="M1016.37,76a6,6,0,0,1-5.62-3.47,9.58,9.58,0,0,1,0-7.71,6.22,6.22,0,0,1,11.24,0,9.58,9.58,0,0,1,0,7.71,6,6,0,0,1-5.62,3.47Zm0-2a3.74,3.74,0,0,0,2.4-.75,4.37,4.37,0,0,0,1.39-2,7.83,7.83,0,0,0,0-5.29,4.47,4.47,0,0,0-1.39-2,4.17,4.17,0,0,0-4.8,0,4.56,4.56,0,0,0-1.4,2,8,8,0,0,0,0,5.29,4.47,4.47,0,0,0,1.4,2A3.74,3.74,0,0,0,1016.37,74.08Z"/><path class="cls-25" d="M1026.12,75.74V61.56h2.1V63.7h.15a3.44,3.44,0,0,1,1.41-1.71,4.17,4.17,0,0,1,2.29-.65h.6a3.57,3.57,0,0,1,.54,0v2.21l-.5-.09a5.49,5.49,0,0,0-.83-.06,3.93,3.93,0,0,0-1.84.43,3.33,3.33,0,0,0-1.28,1.19,3.17,3.17,0,0,0-.46,1.71v9Z"/><path class="cls-25" d="M1035.8,75.74V61.56h2.1v2.22h.19a3.54,3.54,0,0,1,1.43-1.77,4.27,4.27,0,0,1,2.37-.63,4.13,4.13,0,0,1,2.34.63,4.21,4.21,0,0,1,1.46,1.77h.15a4.1,4.1,0,0,1,1.63-1.75,5,5,0,0,1,2.62-.65,4.25,4.25,0,0,1,3.11,1.18,5,5,0,0,1,1.21,3.69v9.49h-2.18V66.25a2.68,2.68,0,0,0-.86-2.24,3.18,3.18,0,0,0-2-.68,3,3,0,0,0-2.32.9,3.24,3.24,0,0,0-.82,2.28v9.23H1044V66a2.55,2.55,0,0,0-.78-2,2.8,2.8,0,0,0-2-.75,2.91,2.91,0,0,0-1.59.46,3.31,3.31,0,0,0-1.18,1.25,3.66,3.66,0,0,0-.45,1.84v8.86Z"/><path class="cls-25" d="M1062.57,76.07a5.78,5.78,0,0,1-2.45-.51,4.12,4.12,0,0,1-1.74-1.48,4.19,4.19,0,0,1-.65-2.36,3.63,3.63,0,0,1,.48-2,3.39,3.39,0,0,1,1.29-1.2,6.54,6.54,0,0,1,1.77-.65c.65-.14,1.31-.26,2-.35l2.1-.25a3.32,3.32,0,0,0,1.18-.3.78.78,0,0,0,.37-.74v-.07a3,3,0,0,0-.74-2.13,3.06,3.06,0,0,0-2.25-.75,3.9,3.9,0,0,0-2.45.68,4,4,0,0,0-1.24,1.46l-2.07-.74a5,5,0,0,1,1.48-2,5.61,5.61,0,0,1,2-1,8.28,8.28,0,0,1,2.18-.29,8.69,8.69,0,0,1,1.57.16,5.32,5.32,0,0,1,1.73.66,3.9,3.9,0,0,1,1.39,1.5,5.6,5.6,0,0,1,.55,2.7v9.34h-2.18V73.82h-.11a3.73,3.73,0,0,1-.74,1,4.29,4.29,0,0,1-1.37.9A5.49,5.49,0,0,1,1062.57,76.07Zm.33-1.95a4.38,4.38,0,0,0,2.19-.51,3.52,3.52,0,0,0,1.34-1.31,3.33,3.33,0,0,0,.46-1.69v-2a1.1,1.1,0,0,1-.6.3,10.2,10.2,0,0,1-1.07.24c-.41.06-.8.12-1.18.16l-.92.12a8.49,8.49,0,0,0-1.58.35,2.86,2.86,0,0,0-1.18.73,1.87,1.87,0,0,0-.45,1.32,1.93,1.93,0,0,0,.85,1.71A3.75,3.75,0,0,0,1062.9,74.12Z"/><path class="cls-25" d="M1079.23,61.56v1.85h-7.35V61.56Zm-5.21-3.4h2.18V71.68a2.75,2.75,0,0,0,.27,1.38,1.37,1.37,0,0,0,.7.61,2.76,2.76,0,0,0,.91.15,3.2,3.2,0,0,0,.59,0l.37-.07.45,2c-.15,0-.36.11-.62.17a4.71,4.71,0,0,1-1,.09,4.45,4.45,0,0,1-1.81-.4,3.53,3.53,0,0,1-1.45-1.21,3.4,3.4,0,0,1-.58-2Z"/><path class="cls-25" d="M1083.62,59.2a1.53,1.53,0,0,1-1.09-.44,1.41,1.41,0,0,1,0-2.08,1.53,1.53,0,0,1,1.09-.44,1.55,1.55,0,0,1,1.1.44,1.43,1.43,0,0,1,0,2.08A1.55,1.55,0,0,1,1083.62,59.2Zm-1.11,16.54V61.56h2.18V75.74Z"/><path class="cls-25" d="M1094.44,76a6,6,0,0,1-5.62-3.47,9.69,9.69,0,0,1,0-7.71,6,6,0,0,1,5.62-3.48,6,6,0,0,1,5.62,3.48,9.58,9.58,0,0,1,0,7.71,6,6,0,0,1-5.62,3.47Zm0-2a3.72,3.72,0,0,0,2.4-.75,4.39,4.39,0,0,0,1.4-2,8,8,0,0,0,0-5.29,4.48,4.48,0,0,0-1.4-2,4.17,4.17,0,0,0-4.8,0,4.47,4.47,0,0,0-1.39,2,8,8,0,0,0,0,5.29,4.37,4.37,0,0,0,1.39,2A3.74,3.74,0,0,0,1094.44,74.08Z"/><path class="cls-25" d="M1106.37,67.21v8.53h-2.18V61.56h2.11v2.22h.18A4.06,4.06,0,0,1,1108,62a4.71,4.71,0,0,1,2.62-.66,5.21,5.21,0,0,1,2.52.58,4,4,0,0,1,1.68,1.77,6.65,6.65,0,0,1,.6,3v9h-2.18V66.88a3.69,3.69,0,0,0-.87-2.61,3.1,3.1,0,0,0-2.38-.94,3.69,3.69,0,0,0-1.86.46,3.28,3.28,0,0,0-1.29,1.32A4.37,4.37,0,0,0,1106.37,67.21Z"/><path class="cls-25" d="M1041.48,101.39V99.32h12.19v2.07Zm5.06,5.06V94.26h2.07v12.19Z"/><path class="cls-25" d="M985.72,139.74h-5.84V120.83H986a9.28,9.28,0,0,1,4.71,1.13,7.44,7.44,0,0,1,3,3.25,12.66,12.66,0,0,1,0,10.12,7.45,7.45,0,0,1-3.06,3.27A9.77,9.77,0,0,1,985.72,139.74Zm-3.55-2h3.4a7.64,7.64,0,0,0,3.89-.9,5.64,5.64,0,0,0,2.29-2.58,10.79,10.79,0,0,0,0-7.93,5.54,5.54,0,0,0-2.23-2.54,7,7,0,0,0-3.7-.9h-3.66Z"/><path class="cls-25" d="M1004.22,140a6.64,6.64,0,0,1-3.53-.91,6,6,0,0,1-2.28-2.55,8.53,8.53,0,0,1-.8-3.82,8.67,8.67,0,0,1,.8-3.84,6.27,6.27,0,0,1,2.23-2.61,6.06,6.06,0,0,1,3.36-.93,6.63,6.63,0,0,1,2.19.37,5.33,5.33,0,0,1,2,1.19,5.8,5.8,0,0,1,1.41,2.18,9.13,9.13,0,0,1,.53,3.35v.92H999.16v-1.88h8.72a4.69,4.69,0,0,0-.48-2.15,3.67,3.67,0,0,0-3.4-2,4,4,0,0,0-2.25.64,4.25,4.25,0,0,0-1.45,1.67,4.87,4.87,0,0,0-.51,2.2v1.25a5.89,5.89,0,0,0,.56,2.72,3.86,3.86,0,0,0,1.55,1.69,4.52,4.52,0,0,0,2.32.58,4.71,4.71,0,0,0,1.55-.24,3.32,3.32,0,0,0,1.21-.74,3.21,3.21,0,0,0,.78-1.24l2.11.6a4.49,4.49,0,0,1-1.12,1.87,5.35,5.35,0,0,1-1.94,1.26A7.07,7.07,0,0,1,1004.22,140Z"/><path class="cls-25" d="M1023.46,128.74l-2,.55a3.5,3.5,0,0,0-.54-.95,2.68,2.68,0,0,0-1-.78,3.56,3.56,0,0,0-1.56-.3,3.73,3.73,0,0,0-2.17.6,1.76,1.76,0,0,0-.86,1.5,1.57,1.57,0,0,0,.59,1.29,5,5,0,0,0,1.85.78l2.1.52a5.87,5.87,0,0,1,2.84,1.41,3.32,3.32,0,0,1,.93,2.43,3.59,3.59,0,0,1-.7,2.18,4.65,4.65,0,0,1-1.94,1.51,7.08,7.08,0,0,1-2.9.56,6.43,6.43,0,0,1-3.59-.94,4.17,4.17,0,0,1-1.8-2.76l2.07-.51a2.88,2.88,0,0,0,1.12,1.72,3.73,3.73,0,0,0,2.16.57,4.09,4.09,0,0,0,2.43-.65,1.91,1.91,0,0,0,.9-1.57,1.69,1.69,0,0,0-.52-1.24,3.24,3.24,0,0,0-1.59-.75l-2.36-.56a5.54,5.54,0,0,1-2.86-1.43,3.43,3.43,0,0,1-.91-2.44,3.54,3.54,0,0,1,.68-2.13,4.58,4.58,0,0,1,1.85-1.45,6.54,6.54,0,0,1,2.68-.52,5.31,5.31,0,0,1,3.31.92A5,5,0,0,1,1023.46,128.74Z"/><path class="cls-25" d="M1032.77,140a6.21,6.21,0,0,1-3.44-.94,6.12,6.12,0,0,1-2.21-2.6,9.51,9.51,0,0,1,0-7.59,6.31,6.31,0,0,1,2.23-2.6,6.06,6.06,0,0,1,3.36-.93,6.36,6.36,0,0,1,2.7.55,5.18,5.18,0,0,1,2,1.55,4.83,4.83,0,0,1,.95,2.33h-2.17a3.42,3.42,0,0,0-1.11-1.72,3.3,3.3,0,0,0-2.29-.76,3.81,3.81,0,0,0-2.23.66,4.27,4.27,0,0,0-1.49,1.86,6.92,6.92,0,0,0-.53,2.8,7.16,7.16,0,0,0,.52,2.86,4.32,4.32,0,0,0,1.48,1.9,4.11,4.11,0,0,0,3.79.37,3.19,3.19,0,0,0,1.17-.84,3.38,3.38,0,0,0,.69-1.33h2.17a4.9,4.9,0,0,1-.91,2.25,5.05,5.05,0,0,1-1.91,1.59A6.15,6.15,0,0,1,1032.77,140Z"/><path class="cls-25" d="M1041.52,139.74V125.56h2.11v2.14h.14a3.44,3.44,0,0,1,1.41-1.71,4.17,4.17,0,0,1,2.29-.65h.6a3.57,3.57,0,0,1,.54,0v2.21l-.5-.09a5.49,5.49,0,0,0-.83-.06,3.93,3.93,0,0,0-1.84.43,3.24,3.24,0,0,0-1.27,1.19,3.1,3.1,0,0,0-.47,1.71v9Z"/><path class="cls-25" d="M1052.3,123.2a1.53,1.53,0,0,1-1.09-.44,1.41,1.41,0,0,1,0-2.08,1.53,1.53,0,0,1,1.09-.44,1.55,1.55,0,0,1,1.1.44,1.43,1.43,0,0,1,0,2.08A1.55,1.55,0,0,1,1052.3,123.2Zm-1.1,16.54V125.56h2.18v14.18Z"/><path class="cls-25" d="M1057.36,145.06v-19.5h2.11v2.25h.26c.16-.24.38-.56.67-.94a3.8,3.8,0,0,1,1.23-1,4.54,4.54,0,0,1,2.2-.45,5.58,5.58,0,0,1,3.15.89,6,6,0,0,1,2.14,2.54,10.34,10.34,0,0,1,0,7.78,6,6,0,0,1-2.13,2.55,5.5,5.5,0,0,1-3.13.9,4.45,4.45,0,0,1-2.19-.46,4,4,0,0,1-1.26-1,11.44,11.44,0,0,1-.68-1h-.19v7.5Zm2.14-12.41a7.7,7.7,0,0,0,.48,2.83,4.21,4.21,0,0,0,1.37,1.91,3.94,3.94,0,0,0,4.5,0,4.5,4.5,0,0,0,1.39-2,7.74,7.74,0,0,0,.46-2.75,7.65,7.65,0,0,0-.45-2.7,4.32,4.32,0,0,0-1.38-1.91,3.67,3.67,0,0,0-2.3-.71,3.72,3.72,0,0,0-2.24.67,4.05,4.05,0,0,0-1.36,1.87A7.6,7.6,0,0,0,1059.5,132.65Z"/><path class="cls-25" d="M1079.38,125.56v1.85H1072v-1.85Zm-5.21-3.4h2.18v13.52a2.75,2.75,0,0,0,.27,1.38,1.33,1.33,0,0,0,.7.61,2.76,2.76,0,0,0,.91.15,3.2,3.2,0,0,0,.59,0l.37-.07.44,2a5.45,5.45,0,0,1-.62.17,4.61,4.61,0,0,1-1,.09,4.45,4.45,0,0,1-1.81-.4,3.62,3.62,0,0,1-1.46-1.21,3.47,3.47,0,0,1-.57-2Z"/><path class="cls-25" d="M1083.77,123.2a1.51,1.51,0,0,1-1.09-.44,1.41,1.41,0,0,1,0-2.08,1.51,1.51,0,0,1,1.09-.44,1.53,1.53,0,0,1,1.09.44,1.41,1.41,0,0,1,0,2.08A1.53,1.53,0,0,1,1083.77,123.2Zm-1.11,16.54V125.56h2.18v14.18Z"/><path class="cls-25" d="M1094.59,140a6,6,0,0,1-5.62-3.47,9.58,9.58,0,0,1,0-7.71,6.21,6.21,0,0,1,11.24,0,9.58,9.58,0,0,1,0,7.71,6,6,0,0,1-5.62,3.47Zm0-2a3.74,3.74,0,0,0,2.4-.75,4.37,4.37,0,0,0,1.39-2,7.83,7.83,0,0,0,0-5.29,4.47,4.47,0,0,0-1.39-2,4.17,4.17,0,0,0-4.8,0,4.47,4.47,0,0,0-1.39,2,7.83,7.83,0,0,0,0,5.29,4.37,4.37,0,0,0,1.39,2A3.74,3.74,0,0,0,1094.59,138.08Z"/><path class="cls-25" d="M1106.52,131.21v8.53h-2.18V125.56h2.11v2.22h.18a4.1,4.1,0,0,1,1.51-1.74,4.77,4.77,0,0,1,2.63-.66,5.21,5.21,0,0,1,2.52.58,4,4,0,0,1,1.68,1.77,6.65,6.65,0,0,1,.6,3v9h-2.18v-8.86a3.69,3.69,0,0,0-.87-2.61,3.1,3.1,0,0,0-2.38-.94,3.67,3.67,0,0,0-1.86.46,3.16,3.16,0,0,0-1.29,1.32A4.37,4.37,0,0,0,1106.52,131.21Z"/><rect class="cls-3" x="1462.63" y="725.76" width="70.89" height="35.44"/><rect class="cls-6" x="1462.63" y="761.2" width="35.44" height="35.44"/><rect class="cls-7" x="1498.07" y="761.2" width="35.44" height="35.44"/><rect class="cls-3" x="1444.91" y="955.25" width="106.33" height="35.44"/><rect class="cls-6" x="1444.91" y="990.69" width="35.44" height="35.44"/><rect class="cls-7" x="1480.35" y="990.69" width="35.44" height="35.44"/><rect class="cls-6" x="1515.79" y="990.69" width="35.44" height="35.44"/><rect class="cls-3" x="1551.24" y="840.5" width="70.89" height="35.44"/><rect class="cls-6" x="1551.24" y="875.94" width="35.44" height="35.44"/><rect class="cls-7" x="1586.68" y="875.94" width="35.44" height="35.44"/><rect class="cls-3" x="1358.85" y="840.5" width="141.77" height="35.44"/><rect class="cls-6" x="1358.85" y="875.94" width="35.44" height="35.44"/><rect class="cls-7" x="1394.29" y="875.94" width="35.44" height="35.44"/><rect class="cls-6" x="1429.74" y="875.94" width="35.44" height="35.44"/><rect class="cls-7" x="1465.18" y="875.94" width="35.44" height="35.44"/><polyline class="cls-8" points="1429.74 828.43 1429.74 817.86 1498.07 817.86 1498.07 796.64"/><path class="cls-9" d="M1429.74,840.5c2.1-5.68,5.7-12.73,9.51-17.09l-9.51,3.44-9.51-3.44C1424,827.77,1427.63,834.82,1429.74,840.5Z"/><polyline class="cls-8" points="1500.62 875.94 1525.53 875.94 1525.53 818.57 1586.68 818.57 1586.68 828.43"/><path class="cls-9" d="M1586.68,840.5c-2.11-5.68-5.7-12.73-9.51-17.09l9.51,3.44,9.51-3.44C1592.38,827.77,1588.79,834.82,1586.68,840.5Z"/><polyline class="cls-8" points="1429.74 911.39 1429.74 933.67 1482.9 933.67 1482.9 943.17"/><path class="cls-9" d="M1482.9,955.25c-2.11-5.68-5.7-12.73-9.51-17.1l9.51,3.44,9.51-3.44C1488.6,942.52,1485,949.57,1482.9,955.25Z"/><polyline class="cls-8" points="1586.68 911.39 1586.68 933.32 1512.25 933.32 1512.25 943.17"/><path class="cls-9" d="M1512.25,955.25c-2.11-5.68-5.7-12.73-9.51-17.1l9.51,3.44,9.51-3.44C1518,942.52,1514.36,949.57,1512.25,955.25Z"/><line class="cls-26" x1="694.04" y1="1060.13" x2="1404.46" y2="1060.13"/><path class="cls-25" d="M1416.53,1060.13c-5.68,2.11-12.72,5.71-17.09,9.51l3.44-9.51-3.44-9.51C1403.81,1054.43,1410.85,1058,1416.53,1060.13Z"/><text class="cls-21" transform="translate(992.4 1046.86)">Syn<tspan class="cls-27" x="42.73" y="0">t</tspan><tspan x="51.73" y="0">hesis</tspan></text></g></g></svg>
