<svg id="Layer_1" data-name="Layer 1" xmlns="http://www.w3.org/2000/svg" viewBox="0 0 1645.81 998.77"><defs><style>.cls-1,.cls-5{opacity:0.75;}.cls-2,.cls-5,.cls-9{fill:#4f4b92;}.cls-3{fill:#342f72;}.cls-4{fill:#8789b2;}.cls-11,.cls-13,.cls-17,.cls-26,.cls-28,.cls-6{fill:none;}.cls-6{stroke:#1d1d1b;}.cls-10,.cls-11,.cls-13,.cls-17,.cls-26,.cls-6{stroke-miterlimit:10;stroke-width:2px;}.cls-7{fill:#1d1d1b;}.cls-8,.cls-9{opacity:0.8;}.cls-10{fill:#b2b2b2;stroke:#605d9c;}.cls-11{stroke:#bc7a36;}.cls-12,.cls-15{fill:#bc7a36;}.cls-13{stroke:#efb201;}.cls-14,.cls-16{fill:#efb201;}.cls-15,.cls-16,.cls-19{font-size:22px;}.cls-15,.cls-16,.cls-19,.cls-20,.cls-21{font-family:Inter-Regular, Inter;}.cls-17{stroke:#1fa7e0;}.cls-18,.cls-19{fill:#1fa7e0;}.cls-20{font-size:26px;}.cls-20,.cls-21,.cls-25{fill:#29235c;}.cls-21{font-size:24px;}.cls-22{letter-spacing:-0.01em;}.cls-23{letter-spacing:-0.07em;}.cls-24{letter-spacing:0em;}.cls-26{stroke:#4f4b92;}.cls-27{letter-spacing:0.01em;}</style></defs><g class="cls-1"><rect class="cls-2" x="444.19" y="427.63" width="150" height="50"/><rect class="cls-3" x="444.19" y="477.63" width="50" height="50"/><rect class="cls-4" x="494.19" y="477.63" width="50" height="50"/><rect class="cls-3" x="544.19" y="477.63" width="50" height="50"/></g><rect class="cls-5" x="494.19" y="213.54" width="50" height="50"/><g class="cls-1"><rect class="cls-2" x="478.18" y="631.48" width="70.89" height="35.44"/><rect class="cls-3" x="478.18" y="666.92" width="35.44" height="35.44"/><rect class="cls-4" x="513.62" y="666.92" width="35.44" height="35.44"/><rect class="cls-2" x="460.46" y="860.97" width="106.33" height="35.44"/><rect class="cls-3" x="460.46" y="896.41" width="35.44" height="35.44"/><rect class="cls-4" x="495.9" y="896.41" width="35.44" height="35.44"/><rect class="cls-3" x="531.35" y="896.41" width="35.44" height="35.44"/><rect class="cls-2" x="566.79" y="746.22" width="70.89" height="35.44"/><rect class="cls-3" x="566.79" y="781.67" width="35.44" height="35.44"/><rect class="cls-4" x="602.23" y="781.67" width="35.44" height="35.44"/><rect class="cls-2" x="374.4" y="746.22" width="141.77" height="35.44"/><rect class="cls-3" x="374.4" y="781.67" width="35.44" height="35.44"/><rect class="cls-4" x="409.84" y="781.67" width="35.44" height="35.44"/><rect class="cls-3" x="445.29" y="781.67" width="35.44" height="35.44"/><rect class="cls-4" x="480.73" y="781.67" width="35.44" height="35.44"/><polyline class="cls-6" points="445.29 734.15 445.29 723.58 513.63 723.58 513.63 702.37"/><path class="cls-7" d="M445.29,746.22c2.11-5.68,5.7-12.72,9.51-17.09l-9.51,3.44-9.51-3.44C439.59,733.5,443.18,740.54,445.29,746.22Z"/><polyline class="cls-6" points="516.17 781.67 541.08 781.67 541.08 724.29 602.23 724.29 602.23 734.15"/><path class="cls-7" d="M602.23,746.22c-2.11-5.68-5.7-12.72-9.51-17.09l9.51,3.44,9.51-3.44C607.93,733.5,604.34,740.54,602.23,746.22Z"/><polyline class="cls-6" points="445.29 817.11 445.29 839.39 498.45 839.39 498.45 848.9"/><path class="cls-7" d="M498.45,861c-2.11-5.68-5.7-12.73-9.51-17.1l9.51,3.44,9.51-3.44C504.15,848.24,500.56,855.29,498.45,861Z"/><polyline class="cls-6" points="602.23 817.11 602.23 839.04 527.8 839.04 527.8 848.9"/><path class="cls-7" d="M527.8,861c-2.11-5.68-5.7-12.73-9.51-17.1l9.51,3.44,9.51-3.44C533.5,848.24,529.91,855.29,527.8,861Z"/></g><g class="cls-8"><rect class="cls-2" x="1316.68" y="427.63" width="150" height="50"/><rect class="cls-3" x="1316.68" y="477.63" width="50" height="50"/><rect class="cls-4" x="1366.68" y="477.63" width="50" height="50"/><rect class="cls-3" x="1416.68" y="477.63" width="50" height="50"/></g><rect class="cls-9" x="1366.68" y="213.54" width="50" height="50"/><circle class="cls-10" cx="945.81" cy="238.54" r="25"/><circle class="cls-10" cx="945.81" cy="477.63" r="50"/><path class="cls-10" d="M1014.86,782.35a50,50,0,0,0-25.48-43.57,50,50,0,0,0-87.14,0,50,50,0,0,0,0,87.14,50,50,0,0,0,87.14,0A50,50,0,0,0,1014.86,782.35Z"/><line class="cls-11" x1="590.02" y1="238.54" x2="862.28" y2="238.54"/><path class="cls-12" d="M874.35,238.54c-5.68,2.11-12.73,5.7-17.1,9.51l3.44-9.51L857.25,229C861.62,232.84,868.67,236.43,874.35,238.54Z"/><line class="cls-13" x1="1017.38" y1="238.54" x2="1307.76" y2="238.54"/><path class="cls-14" d="M1319.83,238.54c-5.68,2.11-12.73,5.7-17.1,9.51l3.44-9.51-3.44-9.51C1307.1,232.84,1314.15,236.43,1319.83,238.54Z"/><text class="cls-15" transform="translate(685.79 227.66)">Analysis</text><text class="cls-16" transform="translate(1121.47 227.66)">Curation</text><path class="cls-17" d="M969.26,247.22c17.88,6.62,16.92,36-4.69,45-16.74,6.93-35.82-5.22-35.82-21.13"/><path class="cls-18" d="M932.15,259.47c.59,6,2.27,13.76,4.84,19l-8.32-5.75-10.07.9C923.39,270.32,928.67,264.43,932.15,259.47Z"/><text class="cls-19" transform="translate(945.33 318.84)">Augmentation</text><line class="cls-11" x1="640.57" y1="477.63" x2="837.28" y2="477.63"/><path class="cls-12" d="M849.35,477.63c-5.68,2.11-12.73,5.7-17.1,9.51l3.44-9.51-3.44-9.51C836.62,471.93,843.67,475.53,849.35,477.63Z"/><line class="cls-13" x1="1042.27" y1="477.63" x2="1257.14" y2="477.63"/><path class="cls-14" d="M1269.21,477.63c-5.68,2.11-12.73,5.7-17.09,9.51l3.44-9.51-3.44-9.51C1256.48,471.93,1263.53,475.53,1269.21,477.63Z"/><line class="cls-11" x1="684.14" y1="782.35" x2="818.36" y2="782.35"/><path class="cls-12" d="M830.43,782.35c-5.68,2.11-12.72,5.7-17.09,9.51l3.44-9.51-3.44-9.51C817.71,776.65,824.75,780.24,830.43,782.35Z"/><line class="cls-13" x1="1061.32" y1="782.35" x2="1198.47" y2="782.35"/><path class="cls-14" d="M1210.54,782.35c-5.68,2.11-12.73,5.7-17.1,9.51l3.44-9.51-3.44-9.51C1197.81,776.65,1204.86,780.24,1210.54,782.35Z"/><text class="cls-20" transform="translate(79.46 240.54)">Data Series/Column</text><text class="cls-21" transform="translate(100.72 483.63)">Data <tspan class="cls-22" x="59.8" y="0">F</tspan><tspan x="73.74" y="0">rame/</tspan><tspan class="cls-23" x="139.6" y="0">T</tspan><tspan class="cls-24" x="153.24" y="0">able</tspan></text><text class="cls-20" transform="translate(142.89 792.67)">Database</text><path class="cls-25" d="M490.42,79a11.53,11.53,0,0,1-1.08,5.17,8.17,8.17,0,0,1-3,3.36,8.44,8.44,0,0,1-8.61,0,8.17,8.17,0,0,1-3-3.36,12.91,12.91,0,0,1,0-10.34,8.17,8.17,0,0,1,3-3.36,8.44,8.44,0,0,1,8.61,0,8.17,8.17,0,0,1,3,3.36A11.53,11.53,0,0,1,490.42,79Zm-2.21,0a9.56,9.56,0,0,0-.82-4.15,6,6,0,0,0-2.21-2.55,6,6,0,0,0-6.21,0,6,6,0,0,0-2.21,2.55,11,11,0,0,0,0,8.3A6,6,0,0,0,479,85.71a6,6,0,0,0,6.21,0,6,6,0,0,0,2.21-2.55A9.56,9.56,0,0,0,488.21,79Z"/><path class="cls-25" d="M494,88.46V74.28h2.1v2.14h.15a3.4,3.4,0,0,1,1.4-1.7,4.12,4.12,0,0,1,2.29-.66h.6l.55,0v2.21l-.5-.08a5.59,5.59,0,0,0-.83-.06,3.82,3.82,0,0,0-1.84.43,3.24,3.24,0,0,0-1.28,1.18,3.17,3.17,0,0,0-.46,1.71v9Z"/><path class="cls-25" d="M504.75,71.92a1.53,1.53,0,0,1-1.09-.44,1.35,1.35,0,0,1-.46-1,1.38,1.38,0,0,1,.46-1,1.53,1.53,0,0,1,1.09-.44,1.55,1.55,0,0,1,1.1.44,1.4,1.4,0,0,1,.45,1,1.37,1.37,0,0,1-.45,1A1.55,1.55,0,0,1,504.75,71.92Zm-1.11,16.54V74.28h2.18V88.46Z"/><path class="cls-25" d="M515.54,94.08a8.39,8.39,0,0,1-2.72-.4,5.72,5.72,0,0,1-1.89-1.06,5.48,5.48,0,0,1-1.19-1.39L511.47,90c.2.25.45.55.75.89a4,4,0,0,0,1.24.87,4.89,4.89,0,0,0,2.08.38,4.63,4.63,0,0,0,2.83-.83,3.07,3.07,0,0,0,1.12-2.61V85.84h-.19a10.15,10.15,0,0,1-.68,1,3.8,3.8,0,0,1-1.25,1,4.6,4.6,0,0,1-2.2.44,5.9,5.9,0,0,1-3.08-.81,5.61,5.61,0,0,1-2.15-2.36,8.2,8.2,0,0,1-.79-3.77,8.83,8.83,0,0,1,.76-3.8A5.87,5.87,0,0,1,512.05,75a5.66,5.66,0,0,1,3.15-.89,4.61,4.61,0,0,1,2.21.45,4,4,0,0,1,1.25,1c.29.38.52.7.68,1h.22V74.28h2.11V88.87a5,5,0,0,1-.83,3,4.83,4.83,0,0,1-2.22,1.69A8.4,8.4,0,0,1,515.54,94.08Zm-.08-7.79a3.94,3.94,0,0,0,2.22-.6A3.73,3.73,0,0,0,519.05,84a6.87,6.87,0,0,0,.47-2.7,7.28,7.28,0,0,0-.46-2.7,4,4,0,0,0-1.36-1.84,3.71,3.71,0,0,0-2.24-.66,3.66,3.66,0,0,0-2.3.7,4.23,4.23,0,0,0-1.38,1.88,7.31,7.31,0,0,0-.45,2.62,6.8,6.8,0,0,0,.46,2.61,3.8,3.8,0,0,0,1.39,1.77A3.86,3.86,0,0,0,515.46,86.29Z"/><path class="cls-25" d="M526.76,71.92a1.53,1.53,0,0,1-1.09-.44,1.35,1.35,0,0,1-.46-1,1.38,1.38,0,0,1,.46-1,1.53,1.53,0,0,1,1.09-.44,1.55,1.55,0,0,1,1.1.44,1.4,1.4,0,0,1,.45,1,1.37,1.37,0,0,1-.45,1A1.55,1.55,0,0,1,526.76,71.92Zm-1.11,16.54V74.28h2.18V88.46Z"/><path class="cls-25" d="M534,79.93v8.53h-2.18V74.28h2.11V76.5h.18a4.06,4.06,0,0,1,1.52-1.74,4.71,4.71,0,0,1,2.62-.66,5.21,5.21,0,0,1,2.52.58,4.08,4.08,0,0,1,1.68,1.78,6.6,6.6,0,0,1,.6,3v9h-2.18V79.6A3.71,3.71,0,0,0,540,77a3.1,3.1,0,0,0-2.38-.93,3.82,3.82,0,0,0-1.86.45,3.28,3.28,0,0,0-1.29,1.32A4.4,4.4,0,0,0,534,79.93Z"/><path class="cls-25" d="M551.21,88.8a5.63,5.63,0,0,1-2.45-.52A4.12,4.12,0,0,1,547,86.8a4.19,4.19,0,0,1-.65-2.36,3.67,3.67,0,0,1,.48-2,3.39,3.39,0,0,1,1.29-1.2,6.89,6.89,0,0,1,1.77-.65c.65-.14,1.31-.26,2-.34.86-.12,1.56-.2,2.1-.26a3.26,3.26,0,0,0,1.18-.3.78.78,0,0,0,.37-.74V78.9a2.91,2.91,0,0,0-.74-2.12,3,3,0,0,0-2.25-.76,4,4,0,0,0-2.45.68,4,4,0,0,0-1.24,1.46l-2.07-.74a5,5,0,0,1,1.48-2,5.61,5.61,0,0,1,2-1,8.28,8.28,0,0,1,2.18-.29,8.69,8.69,0,0,1,1.57.16,5.24,5.24,0,0,1,1.73.66,3.83,3.83,0,0,1,1.39,1.5,5.63,5.63,0,0,1,.55,2.7v9.34h-2.18V86.54h-.11a3.73,3.73,0,0,1-.74,1,4.29,4.29,0,0,1-1.37.9A5.44,5.44,0,0,1,551.21,88.8Zm.33-2a4.35,4.35,0,0,0,2.19-.51A3.55,3.55,0,0,0,555.08,85a3.42,3.42,0,0,0,.45-1.69v-2a1.26,1.26,0,0,1-.6.3,10.35,10.35,0,0,1-1.07.23c-.41.06-.8.12-1.18.16l-.91.12a8.42,8.42,0,0,0-1.59.35,2.86,2.86,0,0,0-1.18.73,1.89,1.89,0,0,0-.45,1.32,1.91,1.91,0,0,0,.85,1.71A3.67,3.67,0,0,0,551.54,86.84Z"/><path class="cls-25" d="M563.88,69.56v18.9H561.7V69.56Z"/><path class="cls-25" d="M498.42,120.46h-5.84v-18.9h6.1a9.23,9.23,0,0,1,4.71,1.13,7.48,7.48,0,0,1,3,3.24,12.8,12.8,0,0,1,0,10.13,7.5,7.5,0,0,1-3.07,3.26A9.77,9.77,0,0,1,498.42,120.46Zm-3.55-2h3.4a7.64,7.64,0,0,0,3.89-.9,5.56,5.56,0,0,0,2.3-2.58,10.9,10.9,0,0,0,0-7.92,5.53,5.53,0,0,0-2.24-2.55,7,7,0,0,0-3.7-.89h-3.66Z"/><path class="cls-25" d="M515.15,120.8a5.6,5.6,0,0,1-2.45-.52A4.12,4.12,0,0,1,511,118.8a4.19,4.19,0,0,1-.65-2.36,3.67,3.67,0,0,1,.48-2,3.43,3.43,0,0,1,1.28-1.2,7.1,7.1,0,0,1,1.78-.65c.65-.14,1.3-.26,2-.34.86-.12,1.57-.2,2.1-.26a3.32,3.32,0,0,0,1.19-.3.79.79,0,0,0,.37-.74v-.07a2.91,2.91,0,0,0-.74-2.12,3,3,0,0,0-2.25-.76,4,4,0,0,0-2.45.68,4,4,0,0,0-1.24,1.46l-2.07-.74a5,5,0,0,1,1.48-2,5.53,5.53,0,0,1,2-1,8.26,8.26,0,0,1,2.17-.29,8.79,8.79,0,0,1,1.58.16,5.32,5.32,0,0,1,1.73.66,3.8,3.8,0,0,1,1.38,1.5,5.62,5.62,0,0,1,.56,2.7v9.34h-2.18v-1.92h-.11a4,4,0,0,1-.74,1,4.23,4.23,0,0,1-1.38.9A5.39,5.39,0,0,1,515.15,120.8Zm.33-2a4.31,4.31,0,0,0,2.18-.51A3.41,3.41,0,0,0,519,117a3.33,3.33,0,0,0,.46-1.69v-2a1.25,1.25,0,0,1-.61.3,9.81,9.81,0,0,1-1.07.23c-.4.06-.79.12-1.17.16l-.92.12a8.49,8.49,0,0,0-1.58.35,2.86,2.86,0,0,0-1.18.73,1.89,1.89,0,0,0-.45,1.32,1.93,1.93,0,0,0,.84,1.71A3.71,3.71,0,0,0,515.48,118.84Z"/><path class="cls-25" d="M531.81,106.28v1.85h-7.35v-1.85Zm-5.21-3.4h2.18V116.4a2.75,2.75,0,0,0,.27,1.38,1.29,1.29,0,0,0,.7.61,2.76,2.76,0,0,0,.91.15,3.2,3.2,0,0,0,.59,0l.37-.07.44,2a3.93,3.93,0,0,1-.62.17,4.61,4.61,0,0,1-1,.09,4.29,4.29,0,0,1-1.81-.4,3.62,3.62,0,0,1-1.46-1.21,3.47,3.47,0,0,1-.57-2.05Z"/><path class="cls-25" d="M539.27,120.8a5.6,5.6,0,0,1-2.45-.52,4,4,0,0,1-2.39-3.84,3.67,3.67,0,0,1,.48-2,3.43,3.43,0,0,1,1.28-1.2,7.1,7.1,0,0,1,1.78-.65c.65-.14,1.3-.26,2-.34.86-.12,1.56-.2,2.1-.26a3.26,3.26,0,0,0,1.18-.3.78.78,0,0,0,.38-.74v-.07a2.87,2.87,0,0,0-.75-2.12,3,3,0,0,0-2.25-.76,3.93,3.93,0,0,0-2.44.68,4.08,4.08,0,0,0-1.25,1.46l-2.07-.74a5.06,5.06,0,0,1,1.49-2,5.46,5.46,0,0,1,2-1,8.2,8.2,0,0,1,2.17-.29,8.79,8.79,0,0,1,1.58.16,5.27,5.27,0,0,1,1.72.66,3.83,3.83,0,0,1,1.39,1.5,5.62,5.62,0,0,1,.56,2.7v9.34h-2.18v-1.92h-.11a4,4,0,0,1-.74,1,4.46,4.46,0,0,1-1.38.9A5.39,5.39,0,0,1,539.27,120.8Zm.33-2a4.31,4.31,0,0,0,2.18-.51,3.48,3.48,0,0,0,1.35-1.31,3.44,3.44,0,0,0,.46-1.69v-2a1.36,1.36,0,0,1-.61.3,10.35,10.35,0,0,1-1.07.23c-.4.06-.79.12-1.17.16l-.92.12a8.31,8.31,0,0,0-1.58.35,2.9,2.9,0,0,0-1.19.73,2.18,2.18,0,0,0,.4,3A3.69,3.69,0,0,0,539.6,118.84Z"/><path class="cls-25" d="M1332.91,88.46V69.56h11.41v2h-9.12V78h8.53v2h-8.53v6.42h9.27v2Z"/><path class="cls-25" d="M1350.34,79.93v8.53h-2.18V74.28h2.11V76.5h.18a4.06,4.06,0,0,1,1.52-1.74,4.71,4.71,0,0,1,2.62-.66,5.21,5.21,0,0,1,2.52.58,4.08,4.08,0,0,1,1.68,1.78,6.6,6.6,0,0,1,.6,3v9h-2.18V79.6a3.71,3.71,0,0,0-.87-2.61,3.1,3.1,0,0,0-2.38-.93,3.77,3.77,0,0,0-1.86.45,3.16,3.16,0,0,0-1.29,1.32A4.4,4.4,0,0,0,1350.34,79.93Z"/><path class="cls-25" d="M1365.56,79.93v8.53h-2.18V69.56h2.18V76.5h.18a4,4,0,0,1,1.5-1.75,4.88,4.88,0,0,1,2.67-.65,5.38,5.38,0,0,1,2.54.57,4,4,0,0,1,1.7,1.77,6.64,6.64,0,0,1,.6,3v9h-2.18V79.6a3.68,3.68,0,0,0-.87-2.62,3.14,3.14,0,0,0-2.41-.92,4,4,0,0,0-1.92.45,3.25,3.25,0,0,0-1.33,1.32A4.29,4.29,0,0,0,1365.56,79.93Z"/><path class="cls-25" d="M1382.91,88.8a5.59,5.59,0,0,1-2.44-.52,4.09,4.09,0,0,1-1.75-1.48,4.19,4.19,0,0,1-.64-2.36,3.67,3.67,0,0,1,.48-2,3.36,3.36,0,0,1,1.28-1.2,7,7,0,0,1,1.78-.65c.65-.14,1.3-.26,2-.34.86-.12,1.56-.2,2.1-.26a3.26,3.26,0,0,0,1.18-.3.78.78,0,0,0,.37-.74V78.9a2.87,2.87,0,0,0-.74-2.12,3,3,0,0,0-2.25-.76,3.93,3.93,0,0,0-2.44.68,4.08,4.08,0,0,0-1.25,1.46l-2.07-.74a5.14,5.14,0,0,1,1.48-2,5.61,5.61,0,0,1,2-1,8.28,8.28,0,0,1,2.18-.29,8.69,8.69,0,0,1,1.57.16,5.24,5.24,0,0,1,1.73.66,3.83,3.83,0,0,1,1.39,1.5,5.63,5.63,0,0,1,.55,2.7v9.34h-2.18V86.54h-.11a3.67,3.67,0,0,1-.73,1,4.46,4.46,0,0,1-1.38.9A5.41,5.41,0,0,1,1382.91,88.8Zm.34-2a4.31,4.31,0,0,0,2.18-.51,3.55,3.55,0,0,0,1.35-1.31,3.42,3.42,0,0,0,.45-1.69v-2a1.26,1.26,0,0,1-.6.3,10.35,10.35,0,0,1-1.07.23c-.4.06-.79.12-1.17.16l-.92.12a8.42,8.42,0,0,0-1.59.35,2.92,2.92,0,0,0-1.18.73,1.89,1.89,0,0,0-.45,1.32,1.94,1.94,0,0,0,.85,1.71A3.69,3.69,0,0,0,1383.25,86.84Z"/><path class="cls-25" d="M1395.58,79.93v8.53h-2.18V74.28h2.11V76.5h.18a4.12,4.12,0,0,1,1.52-1.74,4.71,4.71,0,0,1,2.62-.66,5.21,5.21,0,0,1,2.52.58,4.08,4.08,0,0,1,1.68,1.78,6.6,6.6,0,0,1,.6,3v9h-2.18V79.6a3.71,3.71,0,0,0-.87-2.61,3.1,3.1,0,0,0-2.38-.93,3.82,3.82,0,0,0-1.86.45,3.28,3.28,0,0,0-1.29,1.32A4.4,4.4,0,0,0,1395.58,79.93Z"/><path class="cls-25" d="M1414.38,88.76a5.91,5.91,0,0,1-5.65-3.54,9.51,9.51,0,0,1,0-7.59A6.23,6.23,0,0,1,1411,75a5.93,5.93,0,0,1,3.35-.94,6.36,6.36,0,0,1,2.7.55,5.3,5.3,0,0,1,2,1.55,4.93,4.93,0,0,1,1,2.33h-2.18a3.42,3.42,0,0,0-1.11-1.72,3.34,3.34,0,0,0-2.29-.75,3.83,3.83,0,0,0-2.23.66,4.32,4.32,0,0,0-1.49,1.85,6.92,6.92,0,0,0-.53,2.8,7.43,7.43,0,0,0,.52,2.87,4.35,4.35,0,0,0,1.48,1.89,3.81,3.81,0,0,0,2.25.67,4,4,0,0,0,1.54-.29,3.21,3.21,0,0,0,1.17-.85,3.31,3.31,0,0,0,.69-1.33H1420a5,5,0,0,1-2.82,3.84A6.19,6.19,0,0,1,1414.38,88.76Z"/><path class="cls-25" d="M1429.08,88.76a6.55,6.55,0,0,1-3.53-.91,6,6,0,0,1-2.28-2.55,8.5,8.5,0,0,1-.8-3.82,8.67,8.67,0,0,1,.8-3.84,6.18,6.18,0,0,1,2.23-2.6,6,6,0,0,1,3.36-.94,6.57,6.57,0,0,1,2.18.37,5.37,5.37,0,0,1,2,1.19,5.76,5.76,0,0,1,1.41,2.19,9.07,9.07,0,0,1,.53,3.34v.92H1424V80.23h8.71a4.62,4.62,0,0,0-.47-2.14,3.67,3.67,0,0,0-1.35-1.49,3.82,3.82,0,0,0-2.05-.54,3.89,3.89,0,0,0-2.25.64,4.33,4.33,0,0,0-1.46,1.66,5,5,0,0,0-.5,2.2v1.26a6.08,6.08,0,0,0,.55,2.72,4.06,4.06,0,0,0,1.56,1.69,4.61,4.61,0,0,0,2.32.57,4.71,4.71,0,0,0,1.55-.24,3.32,3.32,0,0,0,1.21-.74,3.24,3.24,0,0,0,.78-1.23l2.11.59a4.69,4.69,0,0,1-1.12,1.88,5.33,5.33,0,0,1-1.94,1.25A7.07,7.07,0,0,1,1429.08,88.76Z"/><path class="cls-25" d="M1443.63,88.76a5.53,5.53,0,0,1-3.13-.9,6,6,0,0,1-2.12-2.55,10.21,10.21,0,0,1,0-7.78,6,6,0,0,1,2.13-2.54,5.67,5.67,0,0,1,3.16-.89,4.52,4.52,0,0,1,2.19.45,4,4,0,0,1,1.24,1c.28.38.51.7.67,1h.18v-7h2.18v18.9H1448V86.29h-.25c-.16.25-.39.58-.69,1a3.92,3.92,0,0,1-1.26,1A4.45,4.45,0,0,1,1443.63,88.76Zm.29-2a3.54,3.54,0,0,0,2.22-.69,4.25,4.25,0,0,0,1.38-1.91,8.69,8.69,0,0,0,0-5.61,4.14,4.14,0,0,0-1.37-1.87,4.13,4.13,0,0,0-4.54,0,4.32,4.32,0,0,0-1.38,1.91,8.39,8.39,0,0,0,0,5.45,4.58,4.58,0,0,0,1.39,2A3.57,3.57,0,0,0,1443.92,86.8Z"/><path class="cls-25" d="M1370.91,120.46h-5.84v-18.9h6.1a9.23,9.23,0,0,1,4.71,1.13,7.48,7.48,0,0,1,3,3.24,12.8,12.8,0,0,1,0,10.13,7.45,7.45,0,0,1-3.07,3.26A9.77,9.77,0,0,1,1370.91,120.46Zm-3.55-2h3.4a7.62,7.62,0,0,0,3.89-.9A5.56,5.56,0,0,0,1377,115a9.64,9.64,0,0,0,.76-4A9.49,9.49,0,0,0,1377,107a5.53,5.53,0,0,0-2.24-2.55,7,7,0,0,0-3.7-.89h-3.66Z"/><path class="cls-25" d="M1387.64,120.8a5.63,5.63,0,0,1-2.45-.52,4.12,4.12,0,0,1-1.74-1.48,4.19,4.19,0,0,1-.65-2.36,3.67,3.67,0,0,1,.48-2,3.39,3.39,0,0,1,1.29-1.2,6.89,6.89,0,0,1,1.77-.65c.65-.14,1.31-.26,2-.34.86-.12,1.56-.2,2.1-.26a3.32,3.32,0,0,0,1.18-.3.78.78,0,0,0,.37-.74v-.07a2.91,2.91,0,0,0-.74-2.12A3,3,0,0,0,1389,108a4,4,0,0,0-2.45.68,4,4,0,0,0-1.24,1.46l-2.07-.74a5,5,0,0,1,1.48-2,5.61,5.61,0,0,1,2-1,8.28,8.28,0,0,1,2.18-.29,8.69,8.69,0,0,1,1.57.16,5.32,5.32,0,0,1,1.73.66,3.9,3.9,0,0,1,1.39,1.5,5.63,5.63,0,0,1,.55,2.7v9.34H1392v-1.92h-.11a3.73,3.73,0,0,1-.74,1,4.29,4.29,0,0,1-1.37.9A5.44,5.44,0,0,1,1387.64,120.8Zm.33-2a4.38,4.38,0,0,0,2.19-.51,3.45,3.45,0,0,0,1.34-1.31,3.33,3.33,0,0,0,.46-1.69v-2a1.26,1.26,0,0,1-.6.3,10.35,10.35,0,0,1-1.07.23c-.41.06-.8.12-1.18.16l-.92.12a8.49,8.49,0,0,0-1.58.35,2.86,2.86,0,0,0-1.18.73,1.89,1.89,0,0,0-.45,1.32,1.91,1.91,0,0,0,.85,1.71A3.67,3.67,0,0,0,1388,118.84Z"/><path class="cls-25" d="M1404.3,106.28v1.85H1397v-1.85Zm-5.21-3.4h2.18V116.4a2.75,2.75,0,0,0,.27,1.38,1.32,1.32,0,0,0,.7.61,2.76,2.76,0,0,0,.91.15,3.2,3.2,0,0,0,.59,0l.37-.07.45,2a4.64,4.64,0,0,1-1.63.26,4.25,4.25,0,0,1-1.8-.4,3.49,3.49,0,0,1-1.46-1.21,3.4,3.4,0,0,1-.58-2.05Z"/><path class="cls-25" d="M1411.76,120.8a5.6,5.6,0,0,1-2.45-.52,4,4,0,0,1-2.39-3.84,3.67,3.67,0,0,1,.48-2,3.43,3.43,0,0,1,1.28-1.2,7.1,7.1,0,0,1,1.78-.65c.65-.14,1.3-.26,2-.34.86-.12,1.56-.2,2.1-.26a3.26,3.26,0,0,0,1.18-.3.78.78,0,0,0,.38-.74v-.07a2.91,2.91,0,0,0-.74-2.12,3,3,0,0,0-2.25-.76,4,4,0,0,0-2.45.68,4.08,4.08,0,0,0-1.25,1.46l-2.06-.74a5,5,0,0,1,1.48-2,5.53,5.53,0,0,1,2-1,8.2,8.2,0,0,1,2.17-.29,8.79,8.79,0,0,1,1.58.16,5.19,5.19,0,0,1,1.72.66,3.83,3.83,0,0,1,1.39,1.5,5.62,5.62,0,0,1,.56,2.7v9.34h-2.18v-1.92H1416a4,4,0,0,1-.74,1,4.34,4.34,0,0,1-1.38.9A5.39,5.39,0,0,1,1411.76,120.8Zm.33-2a4.31,4.31,0,0,0,2.18-.51,3.41,3.41,0,0,0,1.35-1.31,3.33,3.33,0,0,0,.46-1.69v-2a1.3,1.3,0,0,1-.61.3,9.81,9.81,0,0,1-1.07.23c-.4.06-.79.12-1.17.16l-.92.12a8.31,8.31,0,0,0-1.58.35,2.79,2.79,0,0,0-1.18.73,1.89,1.89,0,0,0-.45,1.32,1.93,1.93,0,0,0,.84,1.71A3.71,3.71,0,0,0,1412.09,118.84Z"/><path class="cls-25" d="M880.47,53.56v18.9h-2.29V53.56Z"/><path class="cls-25" d="M886.93,63.93v8.53h-2.18V58.28h2.11V60.5H887a4.06,4.06,0,0,1,1.52-1.74,4.71,4.71,0,0,1,2.62-.66,5.21,5.21,0,0,1,2.52.58,4.08,4.08,0,0,1,1.68,1.78,6.6,6.6,0,0,1,.6,3v9H893.8V63.6a3.71,3.71,0,0,0-.87-2.61,3.1,3.1,0,0,0-2.38-.93,3.79,3.79,0,0,0-1.86.45,3.28,3.28,0,0,0-1.29,1.32A4.4,4.4,0,0,0,886.93,63.93Z"/><path class="cls-25" d="M906.28,58.28v1.85h-7.64V58.28Zm-5.35,14.18V56.33a3.48,3.48,0,0,1,.57-2A3.53,3.53,0,0,1,903,53.08a4.55,4.55,0,0,1,1.93-.41,5.3,5.3,0,0,1,1.31.13A3.68,3.68,0,0,1,907,53l-.62,1.88-.46-.14a3.1,3.1,0,0,0-.76-.08,2,2,0,0,0-1.56.55,2.38,2.38,0,0,0-.47,1.59V72.46Z"/><path class="cls-25" d="M914.52,72.76a6,6,0,0,1-5.62-3.47,9.58,9.58,0,0,1,0-7.71,6,6,0,0,1,5.62-3.48,6,6,0,0,1,5.62,3.48,9.69,9.69,0,0,1,0,7.71,6.19,6.19,0,0,1-2.26,2.56A6.13,6.13,0,0,1,914.52,72.76Zm0-2a3.74,3.74,0,0,0,2.4-.75,4.32,4.32,0,0,0,1.39-2,7.32,7.32,0,0,0,.46-2.64,7.42,7.42,0,0,0-.46-2.65,4.47,4.47,0,0,0-1.39-2,4.21,4.21,0,0,0-4.8,0,4.56,4.56,0,0,0-1.4,2,7.64,7.64,0,0,0-.45,2.65,7.54,7.54,0,0,0,.45,2.64,4.41,4.41,0,0,0,1.4,2A3.74,3.74,0,0,0,914.52,70.8Z"/><path class="cls-25" d="M924.27,72.46V58.28h2.1v2.14h.15a3.37,3.37,0,0,1,1.41-1.7,4.09,4.09,0,0,1,2.29-.66h.6l.54,0v2.21l-.5-.08a5.49,5.49,0,0,0-.83-.06,3.82,3.82,0,0,0-1.84.43,3.31,3.31,0,0,0-1.28,1.18,3.17,3.17,0,0,0-.46,1.71v9Z"/><path class="cls-25" d="M933.94,72.46V58.28h2.11V60.5h.18a3.61,3.61,0,0,1,1.44-1.77A4.27,4.27,0,0,1,940,58.1a4.13,4.13,0,0,1,2.34.63,4.21,4.21,0,0,1,1.46,1.77H944a4.16,4.16,0,0,1,1.63-1.75,5.07,5.07,0,0,1,2.62-.65,4.25,4.25,0,0,1,3.11,1.18A5,5,0,0,1,952.56,63v9.49h-2.18V63a2.69,2.69,0,0,0-.86-2.24,3.17,3.17,0,0,0-2-.67,3,3,0,0,0-2.32.9,3.22,3.22,0,0,0-.82,2.27v9.23h-2.22V62.75a2.55,2.55,0,0,0-.78-2,2.8,2.8,0,0,0-2-.74,3,3,0,0,0-1.59.45,3.38,3.38,0,0,0-1.18,1.25,3.69,3.69,0,0,0-.45,1.84v8.86Z"/><path class="cls-25" d="M960.72,72.8a5.63,5.63,0,0,1-2.45-.52,4.12,4.12,0,0,1-1.74-1.48,4.19,4.19,0,0,1-.65-2.36,3.67,3.67,0,0,1,.48-2,3.39,3.39,0,0,1,1.29-1.2,6.89,6.89,0,0,1,1.77-.65c.65-.14,1.31-.26,2-.34.86-.12,1.56-.2,2.1-.26a3.32,3.32,0,0,0,1.18-.3A.78.78,0,0,0,965,63V62.9a2.91,2.91,0,0,0-.74-2.12,3,3,0,0,0-2.25-.76,4,4,0,0,0-2.45.68,4,4,0,0,0-1.24,1.46l-2.07-.74a5,5,0,0,1,1.48-2,5.61,5.61,0,0,1,2-1A8.28,8.28,0,0,1,962,58.1a8.69,8.69,0,0,1,1.57.16,5.32,5.32,0,0,1,1.73.66,3.9,3.9,0,0,1,1.39,1.5,5.63,5.63,0,0,1,.55,2.7v9.34H965V70.54h-.11a3.73,3.73,0,0,1-.74,1,4.29,4.29,0,0,1-1.37.9A5.48,5.48,0,0,1,960.72,72.8Zm.33-2a4.38,4.38,0,0,0,2.19-.51A3.45,3.45,0,0,0,964.58,69a3.33,3.33,0,0,0,.46-1.69v-2a1.26,1.26,0,0,1-.6.3,10.35,10.35,0,0,1-1.07.23c-.41.06-.8.12-1.18.16l-.92.12a8.49,8.49,0,0,0-1.58.35,2.86,2.86,0,0,0-1.18.73,1.89,1.89,0,0,0-.45,1.32,1.91,1.91,0,0,0,.85,1.71A3.67,3.67,0,0,0,961.05,70.84Z"/><path class="cls-25" d="M977.38,58.28v1.85H970V58.28Zm-5.21-3.4h2.18V68.4a2.75,2.75,0,0,0,.27,1.38,1.32,1.32,0,0,0,.7.61,2.76,2.76,0,0,0,.91.15,3.2,3.2,0,0,0,.59,0l.37-.07.45,2a4.64,4.64,0,0,1-1.63.26,4.29,4.29,0,0,1-1.81-.4A3.53,3.53,0,0,1,972.75,71a3.4,3.4,0,0,1-.58-2.05Z"/><path class="cls-25" d="M981.77,55.92a1.53,1.53,0,0,1-1.09-.44,1.35,1.35,0,0,1-.46-1,1.38,1.38,0,0,1,.46-1,1.53,1.53,0,0,1,1.09-.44,1.55,1.55,0,0,1,1.1.44,1.4,1.4,0,0,1,.45,1,1.37,1.37,0,0,1-.45,1A1.55,1.55,0,0,1,981.77,55.92Zm-1.11,16.54V58.28h2.18V72.46Z"/><path class="cls-25" d="M992.59,72.76a6.13,6.13,0,0,1-3.36-.91A6.19,6.19,0,0,1,987,69.29a9.69,9.69,0,0,1,0-7.71,6.21,6.21,0,0,1,11.24,0,9.58,9.58,0,0,1,0,7.71,6,6,0,0,1-5.62,3.47Zm0-2a3.72,3.72,0,0,0,2.4-.75,4.34,4.34,0,0,0,1.4-2,7.54,7.54,0,0,0,.45-2.64,7.64,7.64,0,0,0-.45-2.65,4.48,4.48,0,0,0-1.4-2,4.21,4.21,0,0,0-4.8,0,4.47,4.47,0,0,0-1.39,2,7.64,7.64,0,0,0-.45,2.65,7.54,7.54,0,0,0,.45,2.64,4.32,4.32,0,0,0,1.39,2A3.74,3.74,0,0,0,992.59,70.8Z"/><path class="cls-25" d="M1004.52,63.93v8.53h-2.18V58.28h2.11V60.5h.18a4.06,4.06,0,0,1,1.52-1.74,4.71,4.71,0,0,1,2.62-.66,5.21,5.21,0,0,1,2.52.58,4.08,4.08,0,0,1,1.68,1.78,6.6,6.6,0,0,1,.6,3v9h-2.18V63.6a3.71,3.71,0,0,0-.87-2.61,3.1,3.1,0,0,0-2.38-.93,3.77,3.77,0,0,0-1.86.45,3.22,3.22,0,0,0-1.29,1.32A4.4,4.4,0,0,0,1004.52,63.93Z"/><path class="cls-25" d="M939.63,98.11V96h12.19v2.07Zm5.06,5.06V91h2.07v12.19Z"/><path class="cls-25" d="M883.87,136.46H878v-18.9h6.09a9.18,9.18,0,0,1,4.71,1.13,7.36,7.36,0,0,1,3,3.24,12.69,12.69,0,0,1,0,10.13,7.48,7.48,0,0,1-3.06,3.26A9.77,9.77,0,0,1,883.87,136.46Zm-3.55-2h3.4a7.64,7.64,0,0,0,3.89-.9A5.54,5.54,0,0,0,889.9,131a10.76,10.76,0,0,0,0-7.92,5.51,5.51,0,0,0-2.23-2.55,7,7,0,0,0-3.7-.89h-3.66Z"/><path class="cls-25" d="M902.37,136.76a6.55,6.55,0,0,1-3.53-.91,6,6,0,0,1-2.28-2.55,8.5,8.5,0,0,1-.8-3.82,8.67,8.67,0,0,1,.8-3.84,6.18,6.18,0,0,1,2.23-2.6,6,6,0,0,1,3.36-.94,6.63,6.63,0,0,1,2.19.37,5.33,5.33,0,0,1,2,1.19,5.76,5.76,0,0,1,1.41,2.19,9.07,9.07,0,0,1,.53,3.34v.92H897.31v-1.88H906a4.62,4.62,0,0,0-.48-2.14,3.67,3.67,0,0,0-1.35-1.49,3.8,3.8,0,0,0-2.05-.54,3.89,3.89,0,0,0-2.25.64,4.33,4.33,0,0,0-1.46,1.66,5,5,0,0,0-.5,2.2v1.26a5.94,5.94,0,0,0,.56,2.72,4,4,0,0,0,1.55,1.69,4.61,4.61,0,0,0,2.32.57,4.71,4.71,0,0,0,1.55-.24,3.32,3.32,0,0,0,1.21-.74,3.24,3.24,0,0,0,.78-1.23l2.11.59a4.58,4.58,0,0,1-1.12,1.88,5.33,5.33,0,0,1-1.94,1.25A7.07,7.07,0,0,1,902.37,136.76Z"/><path class="cls-25" d="M921.61,125.46l-2,.55a3.66,3.66,0,0,0-.54-1,2.66,2.66,0,0,0-1-.77,3.41,3.41,0,0,0-1.56-.31,3.73,3.73,0,0,0-2.17.6,1.78,1.78,0,0,0-.86,1.51,1.55,1.55,0,0,0,.59,1.28,4.82,4.82,0,0,0,1.85.78l2.1.52a5.87,5.87,0,0,1,2.84,1.41,3.32,3.32,0,0,1,.93,2.43,3.57,3.57,0,0,1-.7,2.18,4.67,4.67,0,0,1-1.94,1.52,7.08,7.08,0,0,1-2.9.55,6.35,6.35,0,0,1-3.59-.94,4.18,4.18,0,0,1-1.8-2.75l2.07-.52a2.85,2.85,0,0,0,1.12,1.72,3.73,3.73,0,0,0,2.16.57,4.09,4.09,0,0,0,2.43-.65,1.91,1.91,0,0,0,.9-1.57,1.69,1.69,0,0,0-.52-1.24,3.42,3.42,0,0,0-1.59-.75l-2.36-.55a5.62,5.62,0,0,1-2.86-1.44,3.42,3.42,0,0,1-.91-2.44,3.54,3.54,0,0,1,.68-2.13,4.67,4.67,0,0,1,1.85-1.45,6.54,6.54,0,0,1,2.68-.52,5.38,5.38,0,0,1,3.31.92A5,5,0,0,1,921.61,125.46Z"/><path class="cls-25" d="M930.92,136.76a6.13,6.13,0,0,1-3.44-.94,6.06,6.06,0,0,1-2.21-2.6,9.51,9.51,0,0,1,0-7.59,6.28,6.28,0,0,1,2.23-2.59,6,6,0,0,1,3.36-.94,6.36,6.36,0,0,1,2.7.55,5.18,5.18,0,0,1,2,1.55,4.83,4.83,0,0,1,1,2.33h-2.17a3.42,3.42,0,0,0-1.11-1.72,3.34,3.34,0,0,0-2.29-.75,3.81,3.81,0,0,0-2.23.66,4.25,4.25,0,0,0-1.49,1.85,6.92,6.92,0,0,0-.53,2.8,7.24,7.24,0,0,0,.52,2.87,4.35,4.35,0,0,0,1.48,1.89,3.81,3.81,0,0,0,2.25.67,4,4,0,0,0,1.54-.29,3.21,3.21,0,0,0,1.17-.85,3.31,3.31,0,0,0,.69-1.33h2.17a4.94,4.94,0,0,1-.91,2.26,5.12,5.12,0,0,1-1.91,1.58A6.15,6.15,0,0,1,930.92,136.76Z"/><path class="cls-25" d="M939.67,136.46V122.28h2.11v2.14h.14a3.37,3.37,0,0,1,1.41-1.7,4.09,4.09,0,0,1,2.29-.66h.6l.54,0v2.21l-.5-.08a5.49,5.49,0,0,0-.83-.06,3.82,3.82,0,0,0-1.84.43,3.21,3.21,0,0,0-1.27,1.18,3.1,3.1,0,0,0-.47,1.71v9Z"/><path class="cls-25" d="M950.45,119.92a1.53,1.53,0,0,1-1.09-.44,1.38,1.38,0,0,1-.46-1,1.41,1.41,0,0,1,.46-1,1.53,1.53,0,0,1,1.09-.44,1.55,1.55,0,0,1,1.1.44,1.4,1.4,0,0,1,.45,1,1.37,1.37,0,0,1-.45,1A1.55,1.55,0,0,1,950.45,119.92Zm-1.1,16.54V122.28h2.18v14.18Z"/><path class="cls-25" d="M955.51,141.78v-19.5h2.11v2.26h.26c.16-.25.38-.57.67-1a3.8,3.8,0,0,1,1.23-1,4.54,4.54,0,0,1,2.2-.45,5.66,5.66,0,0,1,3.15.89,6,6,0,0,1,2.14,2.54,10.34,10.34,0,0,1,0,7.78,6,6,0,0,1-2.13,2.55,5.53,5.53,0,0,1-3.13.9,4.45,4.45,0,0,1-2.19-.46,4,4,0,0,1-1.26-1c-.3-.39-.52-.72-.68-1h-.19v7.49Zm2.14-12.41a7.7,7.7,0,0,0,.48,2.83,4.16,4.16,0,0,0,1.37,1.91,3.94,3.94,0,0,0,4.5,0,4.5,4.5,0,0,0,1.39-2,8.39,8.39,0,0,0,0-5.45,4.32,4.32,0,0,0-1.38-1.91,3.66,3.66,0,0,0-2.3-.7,3.71,3.71,0,0,0-2.24.66,4.05,4.05,0,0,0-1.36,1.87A7.67,7.67,0,0,0,957.65,129.37Z"/><path class="cls-25" d="M977.53,122.28v1.85h-7.35v-1.85Zm-5.21-3.4h2.18V132.4a2.75,2.75,0,0,0,.27,1.38,1.29,1.29,0,0,0,.7.61,2.76,2.76,0,0,0,.91.15,3.2,3.2,0,0,0,.59,0l.37-.07.44,2a3.93,3.93,0,0,1-.62.17,4.61,4.61,0,0,1-1,.09,4.29,4.29,0,0,1-1.81-.4,3.62,3.62,0,0,1-1.46-1.21,3.47,3.47,0,0,1-.57-2Z"/><path class="cls-25" d="M981.92,119.92a1.51,1.51,0,0,1-1.09-.44,1.35,1.35,0,0,1-.46-1,1.38,1.38,0,0,1,.46-1,1.51,1.51,0,0,1,1.09-.44,1.53,1.53,0,0,1,1.09.44,1.38,1.38,0,0,1,.46,1,1.35,1.35,0,0,1-.46,1A1.53,1.53,0,0,1,981.92,119.92Zm-1.11,16.54V122.28H983v14.18Z"/><path class="cls-25" d="M992.74,136.76a6,6,0,0,1-5.62-3.47,9.58,9.58,0,0,1,0-7.71,6.21,6.21,0,0,1,11.24,0,9.58,9.58,0,0,1,0,7.71,6,6,0,0,1-5.62,3.47Zm0-2a3.74,3.74,0,0,0,2.4-.75,4.32,4.32,0,0,0,1.39-2,7.32,7.32,0,0,0,.46-2.64,7.42,7.42,0,0,0-.46-2.65,4.47,4.47,0,0,0-1.39-2,4.21,4.21,0,0,0-4.8,0,4.47,4.47,0,0,0-1.39,2,7.42,7.42,0,0,0-.46,2.65,7.32,7.32,0,0,0,.46,2.64,4.32,4.32,0,0,0,1.39,2A3.74,3.74,0,0,0,992.74,134.8Z"/><path class="cls-25" d="M1004.67,127.93v8.53h-2.18V122.28h2.11v2.22h.18a4.1,4.1,0,0,1,1.51-1.74,4.77,4.77,0,0,1,2.63-.66,5.21,5.21,0,0,1,2.52.58,4.08,4.08,0,0,1,1.68,1.78,6.6,6.6,0,0,1,.6,3v9h-2.18V127.6a3.71,3.71,0,0,0-.87-2.61,3.1,3.1,0,0,0-2.38-.93,3.77,3.77,0,0,0-1.86.45,3.16,3.16,0,0,0-1.29,1.32A4.4,4.4,0,0,0,1004.67,127.93Z"/><g class="cls-8"><rect class="cls-2" x="1360.78" y="631.48" width="70.89" height="35.44"/><rect class="cls-3" x="1360.78" y="666.92" width="35.44" height="35.44"/><rect class="cls-4" x="1396.22" y="666.92" width="35.44" height="35.44"/><rect class="cls-2" x="1343.06" y="860.97" width="106.33" height="35.44"/><rect class="cls-3" x="1343.06" y="896.41" width="35.44" height="35.44"/><rect class="cls-4" x="1378.5" y="896.41" width="35.44" height="35.44"/><rect class="cls-3" x="1413.94" y="896.41" width="35.44" height="35.44"/><rect class="cls-2" x="1449.39" y="746.22" width="70.89" height="35.44"/><rect class="cls-3" x="1449.39" y="781.67" width="35.44" height="35.44"/><rect class="cls-4" x="1484.83" y="781.67" width="35.44" height="35.44"/><rect class="cls-2" x="1257" y="746.22" width="141.77" height="35.44"/><rect class="cls-3" x="1257" y="781.67" width="35.44" height="35.44"/><rect class="cls-4" x="1292.44" y="781.67" width="35.44" height="35.44"/><rect class="cls-3" x="1327.89" y="781.67" width="35.44" height="35.44"/><rect class="cls-4" x="1363.33" y="781.67" width="35.44" height="35.44"/><polyline class="cls-6" points="1327.89 734.15 1327.89 723.58 1396.22 723.58 1396.22 702.37"/><path class="cls-7" d="M1327.89,746.22c2.1-5.68,5.7-12.72,9.51-17.09l-9.51,3.44-9.51-3.44C1322.18,733.5,1325.78,740.54,1327.89,746.22Z"/><polyline class="cls-6" points="1398.77 781.67 1423.67 781.67 1423.67 724.29 1484.83 724.29 1484.83 734.15"/><path class="cls-7" d="M1484.83,746.22c-2.11-5.68-5.7-12.72-9.51-17.09l9.51,3.44,9.51-3.44C1490.53,733.5,1486.94,740.54,1484.83,746.22Z"/><polyline class="cls-6" points="1327.89 817.11 1327.89 839.39 1381.05 839.39 1381.05 848.9"/><path class="cls-7" d="M1381.05,861c-2.11-5.68-5.7-12.73-9.51-17.1l9.51,3.44,9.51-3.44C1386.75,848.24,1383.16,855.29,1381.05,861Z"/><polyline class="cls-6" points="1484.83 817.11 1484.83 839.04 1410.4 839.04 1410.4 848.9"/><path class="cls-7" d="M1410.4,861c-2.11-5.68-5.7-12.73-9.51-17.1l9.51,3.44,9.51-3.44C1416.1,848.24,1412.51,855.29,1410.4,861Z"/></g><line class="cls-26" x1="592.19" y1="965.85" x2="1302.61" y2="965.85"/><path class="cls-2" d="M1314.68,965.85c-5.68,2.11-12.72,5.71-17.09,9.52l3.44-9.52-3.44-9.51C1302,960.15,1309,963.75,1314.68,965.85Z"/><text class="cls-21" transform="translate(890.55 952.58)">Syn<tspan class="cls-27" x="42.73" y="0">t</tspan><tspan x="51.73" y="0">hesis</tspan></text><rect class="cls-28" width="1645.81" height="998.77"/></svg>
